<svg width="36" height="36" viewBox="0 0 36 36" fill="none" xmlns="http://www.w3.org/2000/svg">
<rect width="36" height="36" rx="18" fill="#ECFBF5"/>
<path d="M18.1329 17.6834C18.1079 17.6834 18.0912 17.6834 18.0662 17.6834C18.0246 17.6751 17.9662 17.6751 17.9162 17.6834C15.4996 17.6084 13.6746 15.7084 13.6746 13.3667C13.6746 10.9834 15.6162 9.04175 17.9996 9.04175C20.3829 9.04175 22.3246 10.9834 22.3246 13.3667C22.3162 15.7084 20.4829 17.6084 18.1579 17.6834C18.1496 17.6834 18.1412 17.6834 18.1329 17.6834Z" fill="#5B5B5B"/>
<path d="M18.1413 26.7916C16.508 26.7916 14.8663 26.3749 13.6247 25.5416C12.4663 24.7749 11.833 23.7249 11.833 22.5833C11.833 21.4416 12.4663 20.3833 13.6247 19.6083C16.1247 17.9499 20.1747 17.9499 22.658 19.6083C23.808 20.3749 24.4497 21.4249 24.4497 22.5666C24.4497 23.7083 23.8163 24.7666 22.658 25.5416C21.408 26.3749 19.7747 26.7916 18.1413 26.7916Z" fill="#5B5B5B"/>
</svg>
