<svg width="61" height="69" viewBox="0 0 61 69" fill="none" xmlns="http://www.w3.org/2000/svg">
<path fill-rule="evenodd" clip-rule="evenodd" d="M15.1946 15.3058C15.1946 6.86222 22.0086 0 30.5004 0C38.9473 0 45.8062 6.85884 45.8062 15.3058V15.3154C45.7596 23.5605 39.2784 30.2888 31.0561 30.5691C30.9565 30.5725 30.8568 30.5671 30.7582 30.5531C30.6363 30.5356 30.4158 30.5317 30.213 30.557C30.124 30.5681 30.0343 30.5722 29.9447 30.5691C21.7309 30.2891 15.1946 23.567 15.1946 15.3058Z" fill="#419F7D"/>
<path fill-rule="evenodd" clip-rule="evenodd" d="M30.5311 38.1913C38.2661 38.1913 46.0827 40.139 52.0641 44.1412L52.0678 44.1437C56.8073 47.3329 59.6704 51.5537 60.1516 56.0766C60.2086 56.6126 60.0076 57.1438 59.6101 57.5079C51.9246 64.5457 41.7283 68.8236 30.5 68.8236C19.2717 68.8236 9.07543 64.5457 1.38991 57.5079C0.992364 57.1438 0.791381 56.6126 0.848404 56.0766C1.32955 51.5537 4.19264 47.3329 8.93223 44.1437L8.94067 44.138C14.9609 40.1392 22.7956 38.1913 30.5311 38.1913Z" fill="#419F7D"/>
</svg>
