<svg width="21" height="20" viewBox="0 0 21 20" fill="none" xmlns="http://www.w3.org/2000/svg">
<path d="M10.5 18.9583C5.55835 18.9583 1.54169 14.9417 1.54169 10C1.54169 5.05833 5.55835 1.04167 10.5 1.04167C15.4417 1.04167 19.4584 5.05833 19.4584 10C19.4584 14.9417 15.4417 18.9583 10.5 18.9583ZM10.5 2.29167C6.25002 2.29167 2.79169 5.75 2.79169 10C2.79169 14.25 6.25002 17.7083 10.5 17.7083C14.75 17.7083 18.2084 14.25 18.2084 10C18.2084 5.75 14.75 2.29167 10.5 2.29167Z" fill="#5B5B5B"/>
<path d="M8.14165 12.9833C7.98332 12.9833 7.82499 12.925 7.69999 12.8C7.45832 12.5583 7.45832 12.1583 7.69999 11.9167L12.4167 7.2C12.6583 6.95833 13.0583 6.95833 13.3 7.2C13.5417 7.44167 13.5417 7.84167 13.3 8.08333L8.58332 12.8C8.46665 12.925 8.29999 12.9833 8.14165 12.9833Z" fill="#5B5B5B"/>
<path d="M12.8583 12.9833C12.7 12.9833 12.5417 12.925 12.4167 12.8L7.69999 8.08333C7.45832 7.84167 7.45832 7.44167 7.69999 7.2C7.94165 6.95833 8.34165 6.95833 8.58332 7.2L13.3 11.9167C13.5417 12.1583 13.5417 12.5583 13.3 12.8C13.175 12.925 13.0167 12.9833 12.8583 12.9833Z" fill="#5B5B5B"/>
</svg>
