<svg width="33" height="32" viewBox="0 0 33 32" fill="none" xmlns="http://www.w3.org/2000/svg">
<rect x="1.25" y="0.75" width="30.5" height="30.5" rx="15.25" fill="white"/>
<rect x="1.25" y="0.75" width="30.5" height="30.5" rx="15.25" stroke="#419F7D" stroke-width="1.5"/>
<path d="M22.3551 10.1453C20.7384 8.52804 19.1551 8.48636 17.4968 10.1453L16.4884 11.154C16.4051 11.2373 16.3718 11.3707 16.4051 11.4874C17.0384 13.6965 18.8051 15.4638 21.0134 16.0974C21.0468 16.1057 21.0801 16.1141 21.1134 16.1141C21.2051 16.1141 21.2884 16.0807 21.3551 16.014L22.3551 15.0053C23.1801 14.1884 23.5801 13.3964 23.5801 12.5962C23.5884 11.7709 23.1884 10.9706 22.3551 10.1453Z" fill="#419F7D"/>
<path d="M19.5134 16.8557C19.2718 16.739 19.0384 16.6223 18.8134 16.4889C18.6301 16.3806 18.4551 16.2639 18.2801 16.1388C18.1384 16.0471 17.9718 15.9137 17.8134 15.7803C17.7968 15.772 17.7384 15.722 17.6718 15.6553C17.3968 15.4219 17.0884 15.1218 16.8134 14.7883C16.7884 14.7717 16.7468 14.7133 16.6884 14.6383C16.6051 14.5382 16.4634 14.3715 16.3384 14.1798C16.2384 14.0547 16.1218 13.8713 16.0134 13.6879C15.8801 13.4629 15.7634 13.2378 15.6468 13.0044C15.4938 12.6765 15.0635 12.5791 14.8078 12.835L10.1218 17.5226C10.0134 17.631 9.91344 17.8394 9.88844 17.9811L9.43844 21.1739C9.35511 21.7408 9.51344 22.2743 9.86344 22.6328C10.1634 22.9246 10.5801 23.0829 11.0301 23.0829C11.1301 23.0829 11.2301 23.0746 11.3301 23.0579L14.5301 22.6078C14.6801 22.5828 14.8884 22.4827 14.9884 22.3744L19.6823 17.6788C19.933 17.4281 19.8387 16.9967 19.5134 16.8557Z" fill="#419F7D"/>
</svg>
