<svg width="21" height="20" viewBox="0 0 21 20" fill="none" xmlns="http://www.w3.org/2000/svg">
<path d="M10.5001 18.9584C5.55841 18.9584 1.54175 14.9417 1.54175 10.0001C1.54175 5.05841 5.55841 1.04175 10.5001 1.04175C15.4417 1.04175 19.4584 5.05841 19.4584 10.0001C19.4584 14.9417 15.4417 18.9584 10.5001 18.9584ZM10.5001 2.29175C6.25008 2.29175 2.79175 5.75008 2.79175 10.0001C2.79175 14.2501 6.25008 17.7084 10.5001 17.7084C14.7501 17.7084 18.2084 14.2501 18.2084 10.0001C18.2084 5.75008 14.7501 2.29175 10.5001 2.29175Z" fill="#A1A1A1"/>
<path d="M13.5916 13.275C13.4833 13.275 13.375 13.25 13.275 13.1833L10.6916 11.6416C10.05 11.2583 9.57495 10.4166 9.57495 9.67497V6.2583C9.57495 5.91663 9.85828 5.6333 10.2 5.6333C10.5416 5.6333 10.825 5.91663 10.825 6.2583V9.67497C10.825 9.97497 11.075 10.4166 11.3333 10.5666L13.9166 12.1083C14.2166 12.2833 14.3083 12.6666 14.1333 12.9666C14.0083 13.1666 13.8 13.275 13.5916 13.275Z" fill="#A1A1A1"/>
</svg>
