<svg width="17" height="16" viewBox="0 0 17 16" fill="none" xmlns="http://www.w3.org/2000/svg">
<path fill-rule="evenodd" clip-rule="evenodd" d="M10.8494 2.18349C11.6194 2.08858 12.4032 2.39127 13.2047 3.11821L13.2057 3.11906C14.0075 3.84992 14.3809 4.59885 14.325 5.36975C14.2712 6.11201 13.8257 6.73535 13.3258 7.24438L12.4795 8.10782C12.4441 8.16128 12.3988 8.2073 12.3465 8.24349L7.85533 12.8255C7.70024 12.9882 7.49233 13.1253 7.29623 13.2263C7.0971 13.329 6.8677 13.4163 6.6533 13.453L6.65008 13.4536L4.50415 13.8069L4.50348 13.807C3.98969 13.8922 3.49481 13.7694 3.13901 13.4441C2.78091 13.1168 2.61934 12.6348 2.67881 12.119L2.67899 12.1174L2.92566 10.0355L2.9269 10.0258C2.95631 9.81315 3.03778 9.58485 3.13293 9.38818C3.22794 9.19181 3.35752 8.98369 3.51078 8.82644L3.51178 8.82542L8.06132 4.18387C8.06836 4.17623 8.07563 4.1688 8.08314 4.16161L8.98511 3.2414C9.48812 2.72925 10.1029 2.27549 10.8494 2.18349ZM8.17856 5.49284L4.22692 9.52439C4.17354 9.5793 4.09962 9.68623 4.0331 9.82371C3.96771 9.95886 3.92936 10.0821 3.91803 10.1589L3.67223 12.2335L3.67215 12.2342C3.64518 12.4698 3.72022 12.6206 3.81369 12.706C3.90938 12.7935 4.08093 12.8635 4.34022 12.8204L6.48579 12.4672C6.57141 12.4522 6.70134 12.4079 6.83814 12.3374C6.97726 12.2657 7.08106 12.1888 7.13228 12.1347L7.13839 12.1282L11.0525 8.13504C9.7365 7.72254 8.67291 6.75359 8.17856 5.49284ZM11.868 7.30307C10.4286 7.06912 9.29183 6.02895 8.97076 4.68462L9.69891 3.94175C10.1425 3.49016 10.5582 3.22694 10.9717 3.17598C11.3616 3.12792 11.8676 3.2557 12.5325 3.85856C13.2036 4.47046 13.3534 4.9423 13.3277 5.29742C13.2998 5.68118 13.0588 6.08911 12.6121 6.5439L11.868 7.30307Z" fill="#419F7D"/>
</svg>
