<svg width="21" height="20" viewBox="0 0 21 20" fill="none" xmlns="http://www.w3.org/2000/svg">
<path d="M10.2501 19.0082C9.67508 19.0082 9.13341 18.7165 8.75008 18.2082L7.50008 16.5415C7.47508 16.5082 7.37508 16.4665 7.33342 16.4582H6.91675C3.44175 16.4582 1.29175 15.5165 1.29175 10.8332V6.6665C1.29175 2.98317 3.23341 1.0415 6.91675 1.0415H13.5834C17.2667 1.0415 19.2084 2.98317 19.2084 6.6665V10.8332C19.2084 14.5165 17.2667 16.4582 13.5834 16.4582H13.1667C13.1001 16.4582 13.0417 16.4915 13.0001 16.5415L11.7501 18.2082C11.3667 18.7165 10.8251 19.0082 10.2501 19.0082ZM6.91675 2.2915C3.93341 2.2915 2.54175 3.68317 2.54175 6.6665V10.8332C2.54175 14.5998 3.83341 15.2082 6.91675 15.2082H7.33342C7.75842 15.2082 8.24175 15.4498 8.50008 15.7915L9.75008 17.4582C10.0417 17.8415 10.4584 17.8415 10.7501 17.4582L12.0001 15.7915C12.2751 15.4248 12.7084 15.2082 13.1667 15.2082H13.5834C16.5667 15.2082 17.9584 13.8165 17.9584 10.8332V6.6665C17.9584 3.68317 16.5667 2.2915 13.5834 2.2915H6.91675Z" fill="#389E0D"/>
<path d="M10.2501 10.0002C9.78341 10.0002 9.41675 9.62516 9.41675 9.16683C9.41675 8.7085 9.79175 8.3335 10.2501 8.3335C10.7084 8.3335 11.0834 8.7085 11.0834 9.16683C11.0834 9.62516 10.7167 10.0002 10.2501 10.0002Z" fill="#389E0D"/>
<path d="M13.5833 10.0002C13.1167 10.0002 12.75 9.62516 12.75 9.16683C12.75 8.7085 13.125 8.3335 13.5833 8.3335C14.0417 8.3335 14.4167 8.7085 14.4167 9.16683C14.4167 9.62516 14.05 10.0002 13.5833 10.0002Z" fill="#389E0D"/>
<path d="M6.91659 10.0002C6.44992 10.0002 6.08325 9.62516 6.08325 9.16683C6.08325 8.7085 6.45825 8.3335 6.91659 8.3335C7.37492 8.3335 7.74992 8.7085 7.74992 9.16683C7.74992 9.62516 7.38325 10.0002 6.91659 10.0002Z" fill="#389E0D"/>
</svg>
