<svg width="154" height="98" viewBox="0 0 154 98" fill="none" xmlns="http://www.w3.org/2000/svg">
<path d="M12.7474 96.1684C11.2881 97.3272 9.4854 97.9253 7.33938 97.9253C5.19337 97.9627 3.43363 97.402 2.01726 96.2058C0.686726 95.0844 0 93.4397 0 91.3464C0 89.2532 0.643806 87.6085 2.01726 86.4123C3.51947 85.2161 5.32213 84.5807 7.3823 84.5807C9.44248 84.5807 11.2022 85.2161 12.7474 86.4123C14.1637 87.6832 14.8504 89.3279 14.7646 91.3091C14.6788 93.5518 13.992 95.1966 12.7474 96.1684ZM11.0735 91.3091C10.9876 88.6925 9.78584 87.3468 7.3823 87.3468C4.97876 87.3468 3.73407 88.6925 3.69115 91.3091C3.69115 93.963 4.89292 95.2713 7.3823 95.2713C9.82876 95.2713 11.0735 93.963 11.0735 91.3091Z" fill="white"/>
<path d="M25.6664 92.2809V84.805H29.3575V97.8131H25.2372L20.0867 90.2998V97.8131H16.3956V86.3749C16.3527 85.3283 16.9535 84.805 18.2412 84.805H20.5159L25.6664 92.2809Z" fill="white"/>
<path d="M35.023 87.5337V89.627H40.8602V90.711C40.8602 91.795 40.2164 92.3183 38.9288 92.3183H35.023V94.9723H42.8345V97.8131H31.3319V86.2628C31.3319 85.3657 31.9328 84.8797 33.1345 84.805H42.8345V87.5337H35.023Z" fill="white"/>
<path d="M49.0151 94.8975C49.4013 95.1966 50.0881 95.3461 51.0323 95.3461C52.4916 95.4208 53.3071 95.0844 53.4359 94.4116C53.4788 94.0378 53.3071 93.7387 52.8779 93.4771C52.277 93.178 50.7319 92.7295 48.1567 92.1314C45.9248 91.6081 44.7659 90.4867 44.7659 88.7672C44.6801 87.4216 45.281 86.3375 46.5686 85.4778C47.3412 84.9545 48.7575 84.6554 50.7319 84.5807C53.6075 84.5807 55.4531 85.4404 56.2257 87.1225C56.4832 87.6832 56.612 88.3187 56.612 89.0289H54.5518C53.6934 88.9541 53.1354 88.6551 52.8779 88.1318C52.5775 87.4963 51.762 87.1973 50.4744 87.1973C49.1009 87.1973 48.3713 87.6085 48.3283 88.3934C48.3283 88.8046 48.6288 89.1036 49.2297 89.2532C49.7447 89.4774 51.204 89.8886 53.6934 90.4867C55.9253 91.01 57.0412 92.094 57.127 93.7387C57.127 96.5796 55.0668 98 50.9036 98C47.7275 98 45.7531 97.1029 44.9376 95.3087C44.6801 94.7854 44.5513 94.1125 44.5513 93.3649H48.1567C48.1137 93.963 48.4142 94.449 49.0151 94.8975Z" fill="white"/>
<path d="M62.4062 89.4401H67.8142V84.805H71.5483V97.8131H67.8142V92.2809H62.4062V97.8131H58.7151V86.3749C58.7151 85.3283 59.316 84.805 60.5606 84.805H62.4062V89.4401Z" fill="white"/>
<path d="M77.1279 97.8131H73.4368V86.3749C73.3938 85.3283 73.9947 84.805 75.2823 84.805H77.1279V97.8131Z" fill="white"/>
<path d="M82.8363 93.2902V97.8131H79.1452V86.3749C79.1022 85.3283 79.7031 84.805 80.9907 84.805H85.9695C87.6005 84.805 88.8452 85.2161 89.7894 85.9637C90.6907 86.7113 91.1629 87.758 91.1629 89.1036C91.1629 91.9071 89.489 93.2902 86.227 93.2902H82.8363ZM82.8363 90.5615H85.5403C86.8279 90.5615 87.5146 90.0755 87.5146 89.0663C87.5146 88.057 86.8708 87.5337 85.5832 87.5337H82.8363V90.5615Z" fill="white"/>
<path d="M152.626 87.5245H154V88.6715H152.763C151.847 88.6715 151.068 88.9391 150.473 89.4744C149.877 90.0096 149.602 90.6213 149.602 91.2713V97.8854H148.045V91.4624C148.045 90.4302 148.457 89.5126 149.282 88.7097C150.106 87.9451 151.251 87.5245 152.626 87.5245Z" fill="white"/>
<path d="M135.768 91.9976H143.83C143.739 91.0036 143.372 90.1625 142.777 89.4361C142.136 88.7097 141.174 88.3274 139.799 88.3274C138.379 88.3274 137.371 88.7097 136.776 89.4361C136.18 90.1625 135.86 91.0036 135.768 91.9976ZM135.722 92.9917C135.722 94.0621 136.043 95.0179 136.684 95.859C137.234 96.7001 138.288 97.0825 139.799 97.0825C141.448 97.0825 142.685 96.356 143.556 94.9797C143.647 94.8268 143.876 94.7503 144.334 94.7121H145.113C144.747 95.859 144.151 96.6619 143.235 97.1971C142.41 97.7324 141.265 98 139.799 98C137.784 98 136.318 97.503 135.493 96.509C134.623 95.5149 134.211 94.2533 134.211 92.6858C134.211 91.1565 134.623 89.8949 135.493 88.9009C136.318 87.9068 137.784 87.3716 139.799 87.3716C141.907 87.3716 143.372 87.9451 144.197 89.0538C145.022 90.2007 145.434 91.5006 145.388 92.9917H135.722Z" fill="white"/>
<path d="M131.691 88.2509C131.783 87.9451 131.92 87.7539 132.103 87.6775C132.287 87.601 132.516 87.5245 132.791 87.5245H133.478L129.034 97.8854H127.339L122.942 87.5245H124.453L128.21 96.2796L131.691 88.2509Z" fill="white"/>
<path d="M120.651 97.8854H119.094V87.5245H120.102C120.468 87.5245 120.651 87.7157 120.651 88.0216V97.8854ZM120.651 85.0395V85.8423H119.094V84.5807H120.102C120.468 84.5807 120.651 84.7336 120.651 85.0395Z" fill="white"/>
<path d="M115.429 87.5245H116.804V88.6715H115.567C114.651 88.6715 113.872 88.9391 113.276 89.4744C112.681 90.0096 112.406 90.6213 112.406 91.2713V97.8854H110.848V91.4624C110.848 90.4302 111.261 89.5126 112.085 88.7097C112.91 87.9451 114.055 87.5245 115.429 87.5245Z" fill="white"/>
<path d="M101.229 84.5807C103.794 84.5807 105.58 85.2306 106.634 86.4923C107.688 87.7539 108.191 89.3214 108.191 91.233C108.146 93.1446 107.55 94.7503 106.451 96.012C105.351 97.2736 103.519 97.8854 100.954 97.8854H99.9459H94.907V97.2736V85.0395C94.907 84.7336 95.0902 84.5807 95.5025 84.5807H101.229ZM96.4645 85.6129V96.8531H100.816C102.694 96.8531 104.16 96.3178 105.214 95.2474C106.13 94.2533 106.588 92.9152 106.634 91.233C106.634 89.6273 106.222 88.2892 105.397 87.2187C104.389 86.1482 102.923 85.6129 101.045 85.6129H96.4645Z" fill="white"/>
<path d="M116.819 74.6951C116.819 75.5939 107.661 76.3226 96.364 76.3226C85.0672 76.3226 75.9094 75.5939 75.9094 74.6951C75.9094 73.7963 85.0672 73.0676 96.364 73.0676C107.661 73.0676 116.819 73.7963 116.819 74.6951Z" fill="#EDEDED"/>
<path d="M68.7657 71.4404C70.9261 73.2158 75.8712 73.9885 78.0737 74.1529C79.7399 74.2772 81.004 74.8926 77.0394 75.1392C66.8695 75.5337 65.6055 73.3144 63.3647 73.7583C61.5834 74.2022 60.1471 74.5474 59.8023 73.3144C59.4576 72.0815 59.2278 72.624 58.7682 71.4404C57.5616 68.3334 60.7217 68.5799 61.3537 68.1854C64.1117 66.1141 64.284 68.4813 65.1459 68.1854C67.5591 67.7909 66.8122 69.517 67.7315 69.7143C68.6508 69.9115 68.7657 70.454 68.7657 71.4404Z" fill="#ADC8BE"/>
<path d="M57.9831 63.291C57.9831 63.6179 50.2143 63.8828 40.6311 63.8828C31.0478 63.8828 23.2791 63.6179 23.2791 63.291C23.2791 62.9642 31.0478 62.6992 40.6311 62.6992C50.2143 62.6992 57.9831 62.9642 57.9831 63.291Z" fill="#ADC8BE"/>
<path d="M43.3892 60.0359C43.3892 60.2538 40.045 60.4304 35.9198 60.4304C31.7945 60.4304 28.4504 60.2538 28.4504 60.0359C28.4504 59.818 31.7945 59.6414 35.9198 59.6414C40.045 59.6414 43.3892 59.818 43.3892 60.0359Z" fill="#ADC8BE"/>
<path d="M61.775 13.2831C61.775 13.501 53.4917 13.6776 43.2738 13.6776C33.0559 13.6776 24.7727 13.501 24.7727 13.2831C24.7727 13.0652 33.0559 12.8885 43.2738 12.8885C53.4917 12.8885 61.775 13.0652 61.775 13.2831Z" fill="#ADC8BE"/>
<path d="M61.7755 18.0172C61.7755 18.2351 56.3734 18.4118 49.7095 18.4118C43.0457 18.4118 37.6436 18.2351 37.6436 18.0172C37.6436 17.7993 43.0457 17.6227 49.7095 17.6227C56.3734 17.6227 61.7755 17.7993 61.7755 18.0172Z" fill="#ADC8BE"/>
<path d="M61.7753 15.6502C61.7753 15.7591 59.3829 15.8474 56.4317 15.8474C53.4805 15.8474 51.0881 15.7591 51.0881 15.6502C51.0881 15.5412 53.4805 15.4529 56.4317 15.4529C59.3829 15.4529 61.7753 15.5412 61.7753 15.6502Z" fill="#ADC8BE"/>
<path d="M87.7038 11.4272C82.1382 9.22273 75.3229 11.7204 72.4812 17.006C71.2274 19.3381 70.9567 21.8233 71.5237 24.0619C77.9996 29.1909 86.3689 29.1452 89.7441 28.4812C90.9115 27.5232 91.9051 26.3484 92.6358 24.9892C93.601 23.194 93.9836 21.3081 93.85 19.5139C94.7605 18.7284 96.2482 17.1081 94.9152 16.9108C93.5822 16.7135 92.9124 16.0724 92.7441 15.7765C91.7081 13.8895 89.989 12.3324 87.7038 11.4272Z" fill="white"/>
<path d="M94.9152 16.9108C93.5822 16.7135 92.9124 16.0724 92.7441 15.7765C92.492 15.3173 92.1994 14.8776 91.868 14.4621C92.412 14.2862 92.9676 14.0978 93.5388 13.8962C94.7263 14.6031 96.2063 16.4607 95.4708 21.3925C94.603 27.212 92.483 27.6361 91.4488 27.9025C91.336 27.9315 90.8914 28.0061 90.2208 28.0689C91.1828 27.1928 92.0067 26.1593 92.6358 24.9892C93.601 23.194 93.9836 21.3081 93.85 19.5139C94.7605 18.7284 96.2482 17.1081 94.9152 16.9108Z" fill="white"/>
<path d="M90.0419 16.2084C90.2763 16.859 90.1222 17.4777 89.6978 17.5904C89.2734 17.703 88.7393 17.267 88.5049 16.6165C88.2705 15.966 88.4245 15.3473 88.8489 15.2346C89.2734 15.1219 89.8075 15.5579 90.0419 16.2084Z" fill="white"/>
<path d="M79.2891 21.3925C77.9102 18.9858 78.7146 17.3977 79.2891 16.9046C81.3002 16.9046 82.8514 16.4607 83.5983 16.362C92.7915 15.1291 95.5494 12.7618 98.4797 11.6769C101.272 10.643 99.6863 9.45755 97.388 9.45755C93.6533 9.55619 93.2774 9.11233 93.0213 8.4712C92.3318 6.74508 89.7347 3.08573 83.9431 2.25719C76.7035 1.22152 69.3144 4.69023 66.4928 7.9838C63.2068 11.8196 63.6607 18.3348 66.3612 23.4145C69.0617 28.4942 74.1179 30.5162 78.2548 28.4449C82.3917 26.3736 81.0128 24.4008 79.2891 21.3925Z" fill="white"/>
<path d="M79.2616 27.3426C78.3666 27.7193 78.9049 28.3473 79.2616 28.5778C84.421 30.4626 87.3093 29.7411 89.9894 28.4702C90.0934 28.4209 90.0454 28.2864 89.9265 28.2877C81.7076 28.3765 80.299 26.9059 79.2616 27.3426Z" fill="white"/>
<path d="M79.2891 21.3925C77.9102 18.9858 78.7146 17.3977 79.2891 16.9046C79.0018 16.6744 78.3013 16.2832 77.7957 16.5594C77.1637 16.9047 77.4509 20.2089 78.8299 22.5269C80.2089 24.8448 79.5193 26.4723 78.8299 26.9655C78.2361 27.3903 75.9675 29.4314 71.3943 28.445C73.5474 29.6778 76.0635 29.5421 78.2548 28.4449C82.3917 26.3736 81.0128 24.4008 79.2891 21.3925Z" fill="white"/>
<path d="M76.9915 19.3209C77.1294 18.2162 76.5893 17.0194 76.302 16.5592C74.3293 16.3948 70.2345 16.6479 69.6369 18.9757C68.8899 21.8855 74.7507 24.746 76.4169 24.8939C78.0832 25.0419 78.543 24.5103 78.6579 24.1596C78.513 24.0133 78.4131 23.7262 78.3131 23.1677C78.0832 21.8854 76.8191 20.7018 76.9915 19.3209Z" fill="white"/>
<path d="M75.3247 19.7157C75.3247 20.5055 74.5786 21.1459 73.6584 21.1459C72.7381 21.1459 71.9921 20.5055 71.9921 19.7157C71.9921 18.9258 72.7381 18.2854 73.6584 18.2854C74.5786 18.2854 75.3247 18.9258 75.3247 19.7157Z" fill="white"/>
<path d="M79.2891 21.3925C77.9102 18.9858 78.7146 17.3977 79.2891 16.9046C81.3002 16.9046 82.8514 16.4607 83.5983 16.362C92.7915 15.1291 95.5494 12.7618 98.4797 11.6769C101.272 10.643 99.6863 9.45755 97.388 9.45755C93.6533 9.55619 93.2774 9.11233 93.0213 8.4712C92.9064 10.6905 87.9079 11.6275 83.1964 13.6002C76.9088 16.2329 74.3479 16.1648 79.2891 21.3925Z" fill="white"/>
<path d="M79.2891 16.9046C79.4451 16.9046 79.5989 16.9018 79.7492 16.8968C79.481 17.113 78.885 17.8495 79.5768 18.3839C80.726 19.2717 79.6956 21.3923 78.5445 19.2223C78.4337 18.0279 78.911 17.2291 79.2891 16.9046Z" fill="white"/>
<path d="M71.1307 17.9402C71.5138 17.6443 72.6936 17.0525 74.3484 17.0525C73.6589 17.6443 71.916 17.8909 71.1307 17.9402Z" fill="white"/>
<path d="M89.2868 25.2393C86.6405 24.8186 85.4946 23.7926 85.2647 23.2666C86.184 22.9707 88.4249 21.7872 92.5044 21.9843C91.6426 24.2529 92.3895 25.7325 89.2868 25.2393Z" fill="white"/>
<path d="M89.2868 25.2393C87.6275 24.9755 86.5584 24.4737 85.9348 24.0064C86.4968 23.7927 87.9541 23.4639 89.2871 23.8584C90.6201 24.253 91.3028 24.779 91.4775 24.9927C91.1137 25.3252 90.4891 25.4304 89.2868 25.2393Z" fill="white"/>
<path d="M86.3235 22.8722C87.5444 22.4276 89.5382 21.841 92.5044 21.9843C92.3859 22.2962 92.2983 22.5932 92.2264 22.8722C91.6489 22.7242 90.149 22.5763 88.7701 23.1681C87.3911 23.7599 86.5644 23.2174 86.3235 22.8722Z" fill="white"/>
<path d="M79.06 28.2479C78.7727 28.0999 78.6386 28.2152 78.6577 28.4453C79.9795 29.5303 82.6221 29.8755 83.5989 30.0235C84.5757 30.1714 84.3459 29.7476 84.1735 29.7276C82.0475 29.481 79.5839 28.5177 79.06 28.2479Z" fill="white"/>
<path d="M76.9915 19.3209C77.1294 18.2162 76.5893 17.0194 76.302 16.5592C84.0586 16.6578 88.0802 16.0169 94.2281 13.6003C95.4155 14.3072 96.9746 16.4607 96.2391 21.3925C95.3713 27.212 93.2514 27.6361 92.2172 27.9024C91.6426 28.0504 82.4501 29.2393 78.6579 24.1596C78.513 24.0133 78.4131 23.7262 78.3131 23.1677C78.0832 21.8854 76.8191 20.7018 76.9915 19.3209Z" fill="white"/>
<path d="M33.4842 40.1908C33.2368 39.6305 33.5654 39.0041 34.2182 38.7917C34.871 38.5793 35.6008 38.8613 35.8482 39.4216L37.0932 42.2406C37.3407 42.8009 37.0121 43.4274 36.3593 43.6398C35.7065 43.8522 34.9767 43.5701 34.7292 43.0098L33.4842 40.1908Z" fill="white"/>
<path d="M33.1279 34.8105C32.4082 32.8919 33.6368 30.8358 35.872 30.2181L59.2802 23.749C61.5154 23.1312 63.9108 24.1858 64.6305 26.1044L71.4253 44.2186C72.145 46.1372 70.9164 48.1933 68.6812 48.811L45.273 55.2801C43.0378 55.8979 40.6424 54.8433 39.9227 52.9247L33.1279 34.8105Z" fill="white"/>
<path d="M49.2708 55.9361C49.4787 55.3524 50.1986 55.0239 50.8786 55.2023L67.082 59.4547C67.762 59.6332 68.1448 60.251 67.9368 60.8347C67.7289 61.4185 67.0091 61.747 66.329 61.5685L50.1257 57.3162C49.4456 57.1377 49.0629 56.5198 49.2708 55.9361Z" fill="white"/>
<path d="M72.3782 47.7603L43.5659 55.7229C42.6373 55.9796 42.1269 56.8337 42.4259 57.6307L74.6009 48.7388C74.3019 47.9418 73.3068 47.5037 72.3782 47.7603Z" fill="white"/>
<path d="M44.6482 58.6093L73.4605 50.6466C74.3891 50.39 74.8999 49.5358 74.6009 48.7388L42.4259 57.6307C42.7249 58.4278 43.7196 58.8659 44.6482 58.6093Z" fill="white"/>
<path fill-rule="evenodd" clip-rule="evenodd" d="M60.6754 27.7491C60.8692 28.2678 60.5364 28.8232 59.932 28.9895L38.7879 34.809C38.1835 34.9753 37.5365 34.6896 37.3428 34.1709C37.149 33.6522 37.4818 33.0968 38.0861 32.9305L59.2303 27.111C59.8346 26.9447 60.4816 27.2303 60.6754 27.7491Z" fill="white"/>
<path fill-rule="evenodd" clip-rule="evenodd" d="M52.0573 38.5096C51.0814 39.2605 50.6429 40.2625 50.7371 41.5209C50.7437 41.6563 50.7582 41.7861 50.7806 41.9104C51.6311 41.2441 52.0583 40.1914 52.0605 38.7445C52.0609 38.6646 52.0598 38.5863 52.0573 38.5096ZM53.8051 43.9764C53.7639 43.9732 53.7231 43.9696 53.6828 43.9658C54.0429 43.7074 54.3613 43.4182 54.6365 43.0985C55.06 42.6066 55.4045 42.078 55.6703 41.5147C56.3747 41.5997 57.3838 41.6776 58.7039 41.7412C60.6773 41.8963 61.6935 42.6833 61.6901 44.1766C61.6549 46.6481 59.8298 48.1578 56.2525 48.7001C52.5245 49.2652 50.6775 48.2147 50.6673 45.5229L53.8305 45.0434C53.7964 45.6327 53.9935 46.0246 54.4725 46.2765C54.8696 46.5084 55.611 46.5258 56.7407 46.3546C57.7951 46.1948 58.3834 45.846 58.4928 45.2453C58.6022 44.6446 58.3051 44.3327 57.639 44.3039C57.369 44.3123 56.1057 44.2118 53.8051 43.9764ZM57.8571 39.8901C57.5831 39.4818 57.0476 39.3074 56.2877 39.3435C56.3182 39.091 56.3367 38.8335 56.3433 38.5711C56.3426 38.0492 56.2758 37.5518 56.1524 37.0678C58.5087 36.7554 60.0499 37.2665 60.7701 38.5724C61.0243 39.053 61.172 39.5823 61.2509 40.1544L59.3681 40.4398C58.6903 40.5426 58.1866 40.3593 57.8571 39.8901Z" fill="white"/>
<path d="M43.6109 40.4418C43.5364 39.7279 43.6782 39.0114 43.9604 38.2736C44.8177 35.9377 46.6636 34.5399 49.5039 34.1094C52.3443 33.6788 54.2505 34.5079 55.2517 36.5621C55.4956 37.2202 55.6342 37.8942 55.6387 38.6187C55.6075 40.225 55.1013 41.6313 54.1141 42.8084C53.1849 43.9162 51.7033 44.6242 49.7396 44.9219C47.9162 45.1983 46.4521 44.9367 45.3826 44.1319C44.2779 43.3323 43.6971 42.0908 43.6109 40.4418ZM46.6266 39.9847C46.704 42.1185 47.7566 43.0166 49.7203 42.7189C51.684 42.4213 52.6653 41.2149 52.658 39.0705C52.6568 36.9554 51.5982 36.028 49.5643 36.3363C47.6006 36.634 46.6254 37.8697 46.6266 39.9847Z" fill="white"/>
<path d="M91.6609 67.0395C91.6609 71.2292 87.7197 74.6256 82.8579 74.6256C77.9961 74.6256 74.0548 71.2292 74.0548 67.0395C74.0548 62.8497 77.9961 59.4533 82.8579 59.4533C87.7197 59.4533 91.6609 62.8497 91.6609 67.0395Z" fill="white"/>
<path d="M87.3723 66.4559C87.3723 68.8193 85.149 70.7352 82.4065 70.7352C79.6639 70.7352 77.4407 68.8193 77.4407 66.4559C77.4407 64.0924 79.6639 62.1765 82.4065 62.1765C85.149 62.1765 87.3723 64.0924 87.3723 66.4559Z" fill="white"/>
<path d="M85.0022 66.3586C85.0022 67.594 83.84 68.5956 82.4064 68.5956C80.9728 68.5956 79.8106 67.594 79.8106 66.3586C79.8106 65.1232 80.9728 64.1217 82.4064 64.1217C83.84 64.1217 85.0022 65.1232 85.0022 66.3586Z" fill="white"/>
<path d="M84.4098 66.3209C84.4098 67.247 83.5352 67.9977 82.4563 67.9977C81.3773 67.9977 80.5027 67.247 80.5027 66.3209C80.5027 65.3949 81.3773 64.6441 82.4563 64.6441C83.5352 64.6441 84.4098 65.3949 84.4098 66.3209Z" fill="white"/>
<path d="M130.711 55.563C130.711 59.7527 126.769 63.1491 121.908 63.1491C117.046 63.1491 113.105 59.7527 113.105 55.563C113.105 51.3733 117.046 47.9768 121.908 47.9768C126.769 47.9768 130.711 51.3733 130.711 55.563Z" fill="white"/>
<path d="M126.648 55.5629C126.648 57.9263 124.424 59.8423 121.682 59.8423C118.939 59.8423 116.716 57.9263 116.716 55.5629C116.716 53.1995 118.939 51.2835 121.682 51.2835C124.424 51.2835 126.648 53.1995 126.648 55.5629Z" fill="white"/>
<path d="M124.391 55.4658C124.391 56.7012 123.228 57.7027 121.795 57.7027C120.361 57.7027 119.199 56.7012 119.199 55.4658C119.199 54.2303 120.361 53.2288 121.795 53.2288C123.228 53.2288 124.391 54.2303 124.391 55.4658Z" fill="white"/>
<path d="M123.705 55.471C123.705 56.3971 122.831 57.1478 121.752 57.1478C120.673 57.1478 119.798 56.3971 119.798 55.471C119.798 54.5449 120.673 53.7942 121.752 53.7942C122.831 53.7942 123.705 54.5449 123.705 55.471Z" fill="white"/>
<path d="M119.913 56.2109L115.432 49.9476L118.879 48.3201L123.303 54.3368C123.763 54.978 124.108 56.2109 122.901 56.852C121.694 57.4932 120.488 57.0493 119.913 56.2109Z" fill="white"/>
<path d="M80.5675 67.1191L76.0858 60.8558L79.5332 59.2283L83.9575 65.2451C84.4172 65.8862 84.7619 67.1191 83.5553 67.7603C82.3487 68.4014 81.1421 67.9575 80.5675 67.1191Z" fill="white"/>
<path fill-rule="evenodd" clip-rule="evenodd" d="M118.12 49.0068C118.281 48.9196 118.494 48.961 118.596 49.0992L122.618 54.5735C122.719 54.7117 122.671 54.8945 122.51 54.9816C122.349 55.0688 122.136 55.0274 122.035 54.8892L118.013 49.4149C117.911 49.2767 117.959 49.094 118.12 49.0068Z" fill="white"/>
<path fill-rule="evenodd" clip-rule="evenodd" d="M78.7751 59.9152C78.9361 59.828 79.149 59.8694 79.2506 60.0076L83.2726 65.4819C83.3742 65.6201 83.326 65.8028 83.1649 65.89C83.0039 65.9772 82.791 65.9358 82.6894 65.7976L78.6674 60.3233C78.5658 60.1851 78.614 60.0023 78.7751 59.9152Z" fill="white"/>
<path d="M104.829 30.0899C104.199 26.6602 102.793 24.5034 102.169 23.8536L102.099 23.4636C103.034 23.4904 104.83 27.6948 105.153 29.8275L104.829 30.0899Z" fill="white"/>
<path d="M102.054 22.935C102.691 24.4134 102.602 25.8045 101.855 26.042C101.107 26.2795 99.9844 25.2735 99.3468 23.795C98.7092 22.3166 98.7983 20.9255 99.5458 20.688C100.293 20.4505 101.416 21.4565 102.054 22.935Z" fill="white"/>
<path d="M101.617 23.0735C102.152 24.3137 102.077 25.4807 101.45 25.6799C100.823 25.8792 99.8817 25.0353 99.3468 23.795C98.8119 22.5547 98.8861 21.3877 99.5131 21.1885C100.14 20.9893 101.082 21.8332 101.617 23.0735Z" fill="white"/>
<path d="M117.958 28.9378C117.958 31.6071 115.436 33.771 112.327 33.771C109.217 33.771 106.696 31.6071 106.696 28.9378C106.696 26.2686 109.217 24.1047 112.327 24.1047C115.436 24.1047 117.958 26.2686 117.958 28.9378Z" fill="white"/>
<path d="M117.153 29.1352C117.153 31.8045 114.632 33.9684 111.522 33.9684C108.412 33.9684 105.891 31.8045 105.891 29.1352C105.891 26.466 108.412 24.3021 111.522 24.3021C114.632 24.3021 117.153 26.466 117.153 29.1352Z" fill="white"/>
<path d="M115.329 26.3216C115.542 26.8923 115.412 27.4382 115.038 27.5409C114.665 27.6435 114.189 27.2642 113.976 26.6935C113.763 26.1228 113.894 25.577 114.267 25.4743C114.641 25.3716 115.116 25.751 115.329 26.3216Z" fill="white"/>
<path d="M100.95 54.2875C100.399 54.4848 100.222 53.8765 100.203 53.5477C101.525 53.1039 104.501 52.0978 105.834 51.6244C106.662 52.2556 106.332 52.5778 106.064 52.66C104.589 53.1203 101.502 54.0902 100.95 54.2875Z" fill="white"/>
<path d="M100.374 56.9012C99.5708 56.0135 100.126 54.8956 100.49 54.238C101.927 53.7942 105.523 52.5908 106.351 52.3146C106.868 52.8078 107.097 53.153 108.189 53.2516C111.084 53.0938 111.787 54.4398 111.749 54.9659C111.155 55.1467 109.153 55.7409 105.654 56.8064C101.783 57.9855 101.235 57.8517 100.374 56.9012Z" fill="white"/>
<path d="M67.231 58.4298C67.6902 56.7531 68.4373 56.7037 68.8395 56.8516C68.5522 57.6572 68.0468 59.5641 67.6331 60.7478C66.8287 60.5505 66.8284 59.7121 67.231 58.4298Z" fill="white"/>
<path d="M86.7982 64.5453C85.5916 64.1014 78.3395 65.7289 77.5913 67.1098C69.7784 69.0825 67.5186 68.1949 67.288 63.9041C67.0723 59.889 69.93 53.794 71.3089 52.8076C72.4581 53.7447 75.4458 53.3501 76.7673 53.2022C78.0888 53.0542 85.2135 49.7993 88.3162 50.2431C91.4188 50.687 94.2917 49.6513 94.6939 48.8622C96.9347 49.7993 99.5203 56.1119 100.44 57.2462C101.359 58.3805 104.462 56.9997 109.977 55.4215C108.828 53.3995 110.552 50.9829 109.805 46.2484C109.058 41.5139 106.702 40.3796 105.668 38.4562C104.634 36.5328 107.334 32.4394 111.759 35.0039C116.183 37.5685 118.711 41.7605 120.147 44.5223C127.329 43.5852 130.03 49.1088 128.364 50.1444C126.697 51.1801 124.342 46.8895 118.711 48.4676C113.08 50.0458 113.367 54.9776 113.482 56.8023C115.091 57.552 113.616 58.4627 112.678 58.8244C108.982 59.86 100.807 62.178 97.6817 63.1643C93.7746 64.3973 92.5105 64.1506 91.936 63.6081C91.4763 63.1741 89.5562 63.411 86.7982 64.5453Z" fill="white"/>
<path d="M107.156 26.1761C101.456 29.727 103.785 35.3164 105.662 37.6672L111.752 35.941V34.2642C112.933 34.4655 113.606 34.488 114.855 34.2642C113.553 31.2559 111.097 24.6473 110.546 23.2664C108.822 23.365 107.845 25.6336 107.156 26.1761Z" fill="white"/>
<path d="M118.77 48.6156C113.139 50.1938 113.368 54.9776 113.483 56.8023C107.968 58.4956 96.3505 61.9018 94.0063 61.9807C91.076 62.0794 92.455 55.6188 86.3645 53.6954C80.2741 51.772 75.5052 56.1119 72.6898 58.2819C68.7827 61.3889 70.8511 64.2987 69.0125 64.1507C67.5416 64.0324 68.1333 59.6299 68.613 57.4435C69.1291 56.1164 69.7268 54.9189 70.2766 54.0553C70.8703 54.3956 72.6323 54.9382 74.9306 54.3858C77.8034 53.6954 83.8364 50.5072 85.6176 50.4491C86.6528 50.2371 87.594 50.1397 88.3168 50.2431C91.4195 50.687 94.2924 49.6513 94.6946 48.8622C96.9354 49.7993 99.521 56.1119 100.44 57.2462C101.36 58.3805 104.462 56.9996 109.978 55.4215C108.829 53.3995 110.553 50.9829 109.806 46.2484C109.059 41.5139 106.703 40.3796 105.669 38.4562C104.635 36.5328 107.335 32.4394 111.759 35.0039C116.183 37.5685 118.712 41.7605 120.148 44.5223C127.33 43.5852 130.031 49.1088 128.364 50.1444C126.698 51.1801 124.401 47.0375 118.77 48.6156Z" fill="white"/>
<path d="M100.432 57.2463C101.351 58.3806 104.454 56.9997 109.97 55.4216C110.313 55.6682 109.856 55.8161 109.799 55.8161C109.741 55.8161 103.593 57.6409 101.869 57.9861C100.146 58.3313 100.031 57.6409 98.5945 55.027C97.1245 52.068 94.8027 50.1366 93.8255 49.5408C94.2714 49.3203 94.5743 49.0818 94.6862 48.8623C96.927 49.7993 99.5126 56.112 100.432 57.2463Z" fill="white"/>
<path d="M83.9506 54.1883C85.0423 55.2242 78.0899 54.731 72.0568 61.4385C73.3784 57.0977 81.8247 52.9062 83.9506 54.1883Z" fill="white"/>
<path d="M73.8958 47.2346C67.9663 49.0101 69.893 51.7883 71.5976 52.9555C75.5045 55.1255 82.3418 50.7856 86.4213 50.391C88.3748 50.1444 89.8112 50.6869 92.3393 50.0951C98.6021 48.2704 92.1306 45.1892 90.4433 44.8674C88.3748 44.4729 81.3078 45.0153 73.8958 47.2346Z" fill="white"/>
<path d="M76.9971 49.5032C74.546 48.9213 73.7233 48.4186 72.9189 48.4677C71.7695 48.4678 70.5546 49.6019 71.2523 50.1936C72.0088 50.8348 72.9769 51.0922 74.8711 51.18C76.9971 51.2787 79.6976 50.1444 76.9971 49.5032Z" fill="white"/>
<path d="M114.855 34.2642C113.553 31.2559 111.097 24.6473 110.546 23.2664C110.814 22.8554 111.441 22.2109 111.809 22.9211C112.177 23.6312 114.72 30.3187 115.946 33.5737C116.392 34.7573 115.026 34.6588 114.855 34.2642Z" fill="white"/>
<path d="M101.467 26.5468C100.272 26.9018 99.9348 27.7139 99.9156 28.0756L102.674 30.4429C102.98 30.1634 103.731 29.5946 104.282 29.5551C106.121 29.3579 105.144 27.7797 106.408 27.7304C107.672 27.6811 107.615 27.0893 106.581 26.4481C105.547 25.807 102.961 26.1029 101.467 26.5468Z" fill="white"/>
<path d="M110.43 23.4142C108.707 23.5128 107.831 25.6828 107.141 26.2253C106.008 26.9312 105.192 27.7176 104.627 28.5432C105.81 29.283 108.446 30.797 109.324 31.2557C110.646 31.9461 113.806 32.6366 113.232 31.305C112.772 30.2397 111.868 27.5404 111.45 26.3239C110.908 25.0519 110.616 23.878 110.43 23.4142Z" fill="white"/>
<path d="M105.489 33.1793C106.726 33.1793 107.73 32.3182 107.73 31.2559C107.73 30.8954 107.614 30.5579 107.413 30.2695C107.527 30.0722 107.902 29.9572 108.074 29.9243C108.764 29.6777 108.362 29.086 107.96 28.7901C107.918 28.7593 107.88 28.7365 107.845 28.7208C107.902 26.5707 106.868 22.1814 105.949 22.0335V22.428C106.451 23.1513 107.46 25.466 107.478 28.9379C107.429 29.0435 107.385 29.1688 107.328 29.2832C107.19 29.5594 106.62 29.5298 106.352 29.4805C106.087 29.3852 105.795 29.3326 105.489 29.3326C104.251 29.3326 103.248 30.1937 103.248 31.2559C103.248 32.3182 104.251 33.1793 105.489 33.1793Z" fill="white"/>
<path d="M105.704 20.6757C106.493 22.5057 106.383 24.2275 105.457 24.5215C104.532 24.8154 103.142 23.5702 102.353 21.7403C101.564 19.9103 101.674 18.1885 102.6 17.8945C103.525 17.6005 104.915 18.8457 105.704 20.6757Z" fill="white"/>
<path d="M105.164 20.8471C105.826 22.3823 105.734 23.8267 104.957 24.0733C104.181 24.3199 103.015 23.2754 102.353 21.7403C101.691 20.2051 101.784 18.7605 102.56 18.5139C103.336 18.2673 104.502 19.3119 105.164 20.8471Z" fill="white"/>
<path d="M78.607 34.1163C78.607 31.2361 81.4033 31.3709 82.8014 31.7984C86.4786 32.8341 86.9957 33.0312 90.5006 32.9326C94.3314 32.8248 97.1656 31.1407 98.1999 30.1708C98.2573 30.1873 98.9238 30.7133 101.13 32.686C98.6021 37.8644 92.2818 38.3576 90.9028 38.3576C89.9244 38.3576 78.607 37.7165 78.607 34.1163Z" fill="white"/>
<path d="M99.5213 41.366C93.7756 38.2491 87.283 42.7962 84.7548 45.4594C83.9044 46.3553 82.9162 47.5308 79.6412 48.0732C84.3526 49.5035 89.8111 45.6567 93.2585 46.4458C96.7634 47.6294 97.6827 50.6378 98.5445 51.6734C98.1308 53.2516 99.5213 53.6462 100.268 53.6462C101.915 53.153 105.577 52.0187 107.048 51.4269C108.887 50.6871 107.221 49.5035 106.359 48.9117C106.244 47.8267 104.348 44.0292 99.5213 41.366Z" fill="white"/>
<path d="M98.5445 51.6734C98.1308 53.2516 99.5213 53.6462 100.268 53.6462C100.757 53.4997 101.424 53.2968 102.158 53.0684C99.4492 53.3989 98.7721 48.4756 95.0478 45.6664C92.0683 43.419 86.2686 45.2496 83.7411 46.4458C82.9543 47.0889 81.7899 47.7173 79.6412 48.0732C84.3526 49.5035 89.8111 45.6567 93.2585 46.4458C96.7634 47.6294 97.6827 50.6378 98.5445 51.6734Z" fill="white"/>
<path d="M82.3533 32.8397C81.9433 29.9812 84.7378 29.8217 86.1863 30.0993C89.9834 30.7416 90.5081 30.7804 93.9893 30.4176C97.0431 30.0993 98.7668 28.6929 99.9736 27.5092C100.033 27.5195 100.296 27.1678 102.766 28.8944C100.994 34.2991 94.7917 35.4514 93.423 35.596C92.4519 35.6986 82.8658 36.4129 82.3533 32.8397Z" fill="white"/>
<path d="M84.9239 30.1217C81.3616 29.8258 79.3123 28.9381 78.6611 28.3956C76.5388 31.5026 74.2405 30.3683 73.5474 34.9056C73.2944 36.5621 73.7772 47.235 79.3506 48.0241C83.4336 48.6022 85.6744 43.5855 88.6622 43.0923C91.9947 42.4317 91.4931 41.4319 90.6696 40.9223C85.0963 37.5194 85.8432 32.6863 84.9239 30.1217Z" fill="white"/>
<path d="M79.3506 48.0241C83.4336 48.6022 85.6744 43.5855 88.6622 43.0923C91.6055 42.5088 91.558 41.6607 90.9393 41.1195C90.4011 42.599 88.2025 41.1195 86.9385 41.9086C84.0082 43.832 83.4911 43.2895 83.2038 42.599C82.9165 41.9086 82.5143 39.6399 79.584 37.4207C76.6537 35.2014 78.3199 32.9327 79.0094 31.7984C79.561 30.891 78.2689 30.0066 77.5539 29.6778C75.7922 31.2798 74.1207 31.1527 73.5474 34.9056C73.2944 36.5621 73.7772 47.235 79.3506 48.0241Z" fill="white"/>
<path d="M84.9239 30.1217C81.3616 29.8258 79.3123 28.9381 78.6611 28.3956C78.5397 28.5733 78.4176 28.737 78.2954 28.8888C78.7031 29.6614 80.6396 31.1278 85.1245 30.8122C85.0661 30.5676 85.0009 30.3367 84.9239 30.1217Z" fill="white"/>
<path d="M106.557 30.9421C106.557 31.5841 105.951 32.1045 105.203 32.1045C104.455 32.1045 103.849 31.5841 103.849 30.9421C103.849 30.3001 104.455 29.7796 105.203 29.7796C105.951 29.7796 106.557 30.3001 106.557 30.9421Z" fill="white"/>
<path d="M99.9156 28.7408C98.7205 29.0959 98.3834 29.908 98.3643 30.2696L101.122 32.6369C101.429 32.3574 102.179 31.7886 102.731 31.7492C104.57 31.5519 103.593 29.9737 104.857 29.9244C106.121 29.8751 106.064 29.2833 105.029 28.6422C103.995 28.001 101.41 28.2969 99.9156 28.7408Z" fill="white"/>
<path d="M78.6644 34.1658C78.6644 31.2856 81.4607 31.4204 82.8588 31.8478C86.536 32.8836 87.0531 33.0807 90.558 32.9821C94.3888 32.8743 97.223 31.1902 98.2573 30.2203C98.3147 30.2367 98.9812 30.7628 101.188 32.7355C98.6594 37.9139 92.3392 38.407 90.9602 38.407C89.9818 38.407 78.6644 37.766 78.6644 34.1658Z" fill="white"/>
<path fill-rule="evenodd" clip-rule="evenodd" d="M74.1502 4.67855C71.2286 5.76009 68.9122 7.32475 67.6933 8.74755C66.3046 10.3686 65.6365 12.65 65.6742 15.2163C65.7117 17.7703 66.4494 20.4928 67.7178 22.8788C68.8459 25.0008 70.3719 26.4479 71.9454 27.2366C72.8519 27.4161 73.6298 27.4533 74.2921 27.4072C72.998 26.7594 71.7258 25.9685 70.5139 25.0087L70.1664 24.7334L70.0657 24.3361C69.9426 23.8498 69.8548 23.354 69.8033 22.8517C69.4521 22.5139 69.1318 22.151 68.8652 21.7659C68.3966 21.0889 68.0598 20.2886 68.0795 19.4212L66.8804 19.4965L68.26 18.4308C68.7748 16.9398 70.2142 16.1439 71.5548 15.7318C74.9091 10.4049 82.1685 7.81939 88.327 10.2587C88.3465 10.2665 88.366 10.2743 88.3855 10.2821C88.6664 10.1764 88.9355 10.0717 89.1924 9.96651C90.0832 9.60199 90.7094 9.27837 91.1049 8.97329C91.3158 8.81056 91.4225 8.68409 91.4764 8.58769C90.7334 7.05248 88.458 4.20662 83.6987 3.52576C80.4206 3.05681 77.0548 3.60329 74.1502 4.67855ZM93.5491 10.4957C93.4062 10.6365 93.2535 10.7676 93.0955 10.8896C92.5789 11.2881 91.9505 11.632 91.2819 11.9398C91.6685 12.2418 92.0295 12.5646 92.3641 12.9054C92.7695 12.7556 93.1837 12.5974 93.6088 12.4303L93.7998 12.3551C94.3914 12.0912 94.9294 11.8313 95.4432 11.5831C96.0644 11.283 96.6504 11 97.2533 10.7473C95.58 10.7852 94.3936 10.7202 93.5491 10.4957ZM89.3531 13.9052C89.0005 13.6232 88.62 13.3656 88.2127 13.1355C88.0108 13.2071 87.8075 13.2787 87.6039 13.3504C87.4922 13.3898 87.3804 13.4292 87.2687 13.4686C86.1364 13.8683 84.9796 14.2833 83.8485 14.7569C83.5828 14.8681 83.3238 14.9746 83.0722 15.0767C83.7311 15.0168 84.3664 14.9426 84.9876 14.8525C85.9828 14.6915 86.8858 14.5177 87.7105 14.3346C87.8983 14.1962 88.1285 14.0802 88.4096 14.0056C88.7005 13.9283 88.9754 13.9142 89.2282 13.9411C89.2698 13.9292 89.3114 13.9172 89.3531 13.9052ZM87.1233 17.1119C86.5677 17.2193 86.0078 17.3134 85.438 17.3952C84.9223 17.4785 84.3859 17.5578 83.8278 17.6327L83.8243 17.6331C83.7399 17.6443 83.5907 17.674 83.3886 17.7142C82.9024 17.8109 82.1097 17.9686 81.1752 18.0758C81.3759 18.3851 81.4905 18.7112 81.54 19.0165C81.6222 19.5228 81.5476 20.1168 81.2024 20.6119C81.1004 20.7583 80.9573 20.9192 80.7642 21.0614C80.7892 21.1048 80.8142 21.1482 80.8393 21.1917C81.1877 21.7957 81.54 22.4064 81.8156 22.9812C82.1494 23.6775 82.4309 24.4375 82.4611 25.2277C82.4649 25.3273 82.4647 25.4266 82.4603 25.5256C83.7866 26.1873 85.3212 26.546 86.8368 26.7162C87.7972 26.824 88.7126 26.851 89.5001 26.8382C89.5801 26.7582 89.6589 26.6768 89.7364 26.5941C89.5509 26.5781 89.3634 26.5555 89.1749 26.5281C89.122 26.5204 89.0691 26.5123 89.0161 26.5039C88.7325 26.4588 88.4616 26.4072 88.203 26.3498C87.096 26.1041 86.2149 25.753 85.5361 25.3591C85.3168 25.2319 85.1121 25.0962 84.9252 24.9539L83.1819 23.6475L83.7434 23.4341L83.3409 22.5129L84.5033 22.1388L85.4515 21.7936C85.9071 21.6198 86.5289 21.3975 87.3168 21.197C88.5873 20.8708 90.2555 20.6108 92.3696 20.6909C92.3908 20.3225 92.3876 19.957 92.3608 19.5962L92.3176 19.0162L92.7942 18.6051C93.0362 18.3963 93.2974 18.1429 93.5161 17.8976C92.6386 17.5883 92.0119 17.1221 91.6407 16.6787C91.6519 16.9122 91.632 17.1455 91.5759 17.3708C91.4617 17.8294 91.0952 18.565 90.1371 18.8193C89.181 19.0731 88.3979 18.6449 88.0038 18.3232C87.6035 17.9964 87.3072 17.5663 87.1233 17.1119ZM80.1526 19.0637C80.1527 19.0639 80.1511 19.0625 80.1478 19.0593C80.1509 19.062 80.1525 19.0635 80.1526 19.0637ZM76.3373 15.2706C76.9681 14.7609 77.7879 14.3762 78.5778 14.0402C79.1001 13.8179 79.6873 13.5871 80.3072 13.3435L80.4012 13.3065C81.0633 13.0462 81.7763 12.7651 82.5443 12.4435C82.9781 12.2619 83.4133 12.0891 83.8448 11.9239C80.8277 11.8064 77.7188 12.9978 75.5352 15.2351C75.8239 15.2399 76.0936 15.2525 76.3373 15.2706ZM70.624 29.5476C68.8368 28.6938 67.2447 27.3225 65.9842 25.5426C66.0073 25.5974 66.0294 25.6528 66.0503 25.7088L72.8452 43.823C73.1347 44.5949 73.1913 45.3828 73.0488 46.1308C73.1658 46.0931 73.2849 46.0561 73.406 46.0198C73.6971 45.9327 73.9876 45.8481 74.2773 45.7659C73.6093 44.6245 73.1405 43.3299 72.8091 42.0756C71.9937 38.9895 71.9132 35.7503 72.0679 34.7377C72.0901 34.5922 72.114 34.4509 72.1397 34.3135C72.2848 33.5366 72.4855 32.8847 72.7475 32.3251C72.7723 32.2721 72.7976 32.22 72.8235 32.1686C73.0618 31.696 73.344 31.2971 73.6703 30.946C73.7399 30.8711 73.8105 30.7995 73.8819 30.7308C73.9298 30.6847 73.9785 30.6394 74.0281 30.5948C74.0333 30.5901 74.0386 30.5854 74.0439 30.5807C72.8789 30.492 71.7178 30.1628 70.624 29.5476ZM75.5505 33.2142C75.6348 33.0445 75.7226 32.9026 75.8116 32.7813C76.0104 32.5105 76.2411 32.307 76.5291 32.0981C76.6697 31.9962 76.8352 31.8882 77.0196 31.768C77.1854 31.6598 77.3665 31.5418 77.5583 31.4092C77.2154 31.956 76.612 32.9333 76.4575 34.0504C76.2614 35.4681 76.7743 37.0047 78.5989 38.3866C80.7705 40.0313 81.3084 41.6163 81.6331 42.5733C81.6927 42.7488 81.7451 42.9032 81.7991 43.033C81.8842 43.2376 82.0583 43.6269 82.4329 43.9549C82.45 43.9699 82.4673 43.9846 82.4848 43.999C80.8463 44.2428 79.0579 44.5763 77.1958 45.0119C76.5583 44.0678 76.0712 42.8374 75.7191 41.5046C74.963 38.6428 74.9285 35.7173 75.0269 35.0734C75.0368 35.0082 75.0471 34.9447 75.0576 34.8828C75.1886 34.1138 75.3645 33.5889 75.5505 33.2142ZM68.6183 47.4489C69.8169 46.9344 70.426 45.7354 70.0054 44.6141L63.2105 26.4999C62.7453 25.2597 61.1919 24.5711 59.7358 24.9735L36.3277 31.4426C34.8742 31.8443 34.0834 33.177 34.5478 34.4149L35.7527 37.6272C36.4149 37.8714 36.966 38.3374 37.2428 38.9642L38.4878 41.7832C38.8299 42.5577 38.6691 43.3878 38.1475 44.0114L41.3426 52.5292C41.764 53.6526 43.0786 54.3235 44.4047 54.1406L68.6183 47.4489ZM41.102 56.0826C39.9099 55.4929 38.9586 54.5354 38.5028 53.3202L35.3626 44.9489C34.4687 44.7921 33.6835 44.2574 33.3345 43.4672L32.0895 40.6482C31.6793 39.7193 31.9923 38.7105 32.7837 38.0737L31.708 35.206C30.733 32.6068 32.3994 29.8273 35.4163 28.9935L58.8245 22.5244C61.2082 21.8656 63.7313 22.6161 65.1645 24.2431C65.1103 24.1464 65.0569 24.0487 65.0045 23.9501C63.5725 21.2563 62.733 18.1814 62.6899 15.2489C62.647 12.3288 63.395 9.43464 65.2923 7.21998C66.8949 5.34921 69.6839 3.53273 72.9722 2.31543C76.2774 1.09187 80.2259 0.421827 84.1874 0.988548C90.662 1.91478 93.609 6.00801 94.4262 8.03747C94.7528 8.12677 95.5386 8.21979 97.3423 8.17215L97.3651 8.17155H97.388C98.1023 8.17155 98.7999 8.26266 99.4074 8.44322C99.9726 8.61123 100.65 8.9143 101.078 9.45809C101.309 9.75186 101.47 10.1239 101.459 10.5483C101.449 10.969 101.272 11.3362 101.033 11.6307C100.588 12.1796 99.8584 12.566 99.0687 12.8583C98.4722 13.0792 97.8424 13.3846 97.1108 13.7393C96.9454 13.8194 96.7749 13.9021 96.5983 13.9869C97.5288 15.3259 98.1122 17.3892 97.8611 20.3511C98.0924 20.0062 98.4647 19.6609 99.0295 19.4814C99.4952 19.3334 99.9464 19.3445 100.334 19.4271C100.335 19.3403 100.338 19.2547 100.343 19.1705C100.372 18.7172 100.475 18.2385 100.713 17.8082C100.956 17.37 101.386 16.9095 102.083 16.6879C102.78 16.4665 103.454 16.5757 103.968 16.7717C104.473 16.9644 104.913 17.2697 105.278 17.5971C106.012 18.2551 106.654 19.1873 107.102 20.2277C107.297 20.6784 107.448 21.1341 107.553 21.5799C107.743 21.8185 107.895 22.0886 108.018 22.3436C108.093 22.499 108.166 22.6656 108.235 22.8407C108.626 22.5395 109.1 22.2675 109.661 22.1123C109.847 21.9194 110.083 21.722 110.365 21.5741C110.681 21.4091 111.272 21.198 111.967 21.3978C112.645 21.5931 112.998 22.0606 113.172 22.397C113.221 22.4919 113.296 22.6599 113.392 22.8868C116.817 23.3283 119.45 25.8654 119.45 28.9378C119.45 30.6177 118.663 32.1376 117.389 33.2423C117.542 33.6793 117.606 34.197 117.379 34.7018C117.117 35.2822 116.574 35.619 116.033 35.7492C115.77 35.8127 115.506 35.8294 115.257 35.812C118.04 38.1479 119.868 40.9833 121.056 43.1473C121.667 43.1162 122.249 43.1271 122.802 43.1747C125.449 43.4019 127.443 44.4659 128.715 45.7641C129.542 46.6091 130.081 47.5723 130.264 48.4767C130.365 48.9772 130.377 49.6209 130.114 50.2045C131.425 51.6933 132.203 53.5498 132.203 55.5629C132.203 60.4629 127.594 64.4351 121.908 64.4351C118.133 64.4351 114.833 62.6848 113.041 60.0748C109.292 61.1258 101.262 63.4039 98.1947 64.3718C96.1931 65.0035 94.7228 65.3059 93.6078 65.3372C93.3829 65.3436 93.1671 65.3388 92.9605 65.3227C93.0869 65.8781 93.1531 66.4521 93.1531 67.0394C93.1531 71.9394 88.5438 75.9115 82.8578 75.9115C78.087 75.9115 74.074 73.115 72.906 69.3203C72.8987 69.321 72.8915 69.3217 72.8843 69.3224C71.4602 69.4602 70.1686 69.417 69.0685 69.0586C67.9034 68.679 67.0741 67.9851 66.5519 67.0504C66.0586 66.1673 65.8588 65.107 65.7973 63.9636C65.7767 63.5795 65.7809 63.182 65.8065 62.7756L49.7276 58.5559L45.1038 59.8338C43.3958 60.3058 41.5593 59.5014 41.006 58.0263C40.7568 57.3621 40.8112 56.6777 41.102 56.0826ZM69.0315 65.4401C69.0929 65.6319 69.1632 65.7955 69.241 65.9347C69.4515 66.3116 69.7187 66.5208 70.124 66.6529C70.5943 66.8061 71.347 66.8831 72.5512 66.7666C72.5566 66.766 72.562 66.7655 72.5674 66.765C72.6373 64.782 73.4623 62.9626 74.803 61.5132L74.4359 61.0002C74.0341 61.3771 73.6333 61.7849 73.2362 62.2263L71.823 61.626C71.6831 61.9906 71.6057 62.3302 71.5494 62.6375C71.5194 62.8012 71.5008 62.9213 71.4813 63.0475C71.4666 63.1429 71.4513 63.2417 71.4301 63.3655C71.3919 63.5887 71.335 63.8873 71.2171 64.169C71.0942 64.4631 70.8542 64.8637 70.3539 65.1452C69.9097 65.3951 69.4345 65.4537 69.0315 65.4401ZM77.0916 58.9146C78.6139 57.9249 80.0551 57.3018 81.2487 56.8738C81.8004 56.676 82.304 56.5182 82.7534 56.3819C82.8479 56.3532 82.9431 56.3246 83.0378 56.2961C83.3698 56.1963 83.6947 56.0987 83.9553 56.0089C84.1283 55.9492 84.3194 55.8777 84.4991 55.7918C84.6632 55.7134 84.919 55.5764 85.1374 55.3549C85.2788 55.2116 85.4123 55.0226 85.4894 54.7967C85.6093 54.8292 85.7299 54.8645 85.851 54.9028C88.2483 55.6598 89.2215 57.2782 89.9691 59.0383C90.0565 59.2442 90.146 59.467 90.2383 59.6968C90.501 60.351 90.7861 61.061 91.1106 61.5949C91.2172 61.7703 91.3428 61.9543 91.4935 62.1337C91.48 62.1325 91.4667 62.1315 91.4536 62.1306C91.4471 62.1301 91.4405 62.1296 91.434 62.1292C89.5891 59.741 86.4367 58.1673 82.8578 58.1673C82.1062 58.1673 81.3734 58.2367 80.6676 58.3685L80.0442 57.5207L77.0916 58.9146ZM76.5145 63.9051C76.0435 64.6115 75.7268 65.4041 75.6041 66.2486C75.7199 66.223 75.8374 66.1965 75.9568 66.1691C76.002 65.4018 76.2275 64.6755 76.5975 64.0211L76.5145 63.9051ZM76.498 68.7059C76.2787 68.7552 76.0634 68.802 75.8521 68.8462C76.7534 71.4452 79.5489 73.3396 82.8578 73.3396C86.8955 73.3396 90.1686 70.5189 90.1686 67.0394C90.1686 66.2949 90.0188 65.5805 89.7436 64.9175C89.4325 64.9979 89.0862 65.101 88.7072 65.2293C88.8102 65.6239 88.8645 66.0344 88.8645 66.4558C88.8645 69.5295 85.9731 72.0212 82.4064 72.0212C79.769 72.0212 77.5008 70.6587 76.498 68.7059ZM87.3881 62.914C87.6404 62.8255 87.8863 62.7443 88.1252 62.6705C86.7952 61.4799 84.9269 60.7392 82.8578 60.7392C82.7105 60.7392 82.5642 60.743 82.4191 60.7504L82.5227 60.8914C84.4809 60.9212 86.2265 61.7021 87.3881 62.914ZM115.418 58.4672C116.637 60.4851 119.085 61.8631 121.908 61.8631C125.945 61.8631 129.218 59.0424 129.218 55.5629C129.218 54.0582 128.606 52.6766 127.585 51.5932C127.093 51.5616 126.652 51.4191 126.319 51.2841C125.969 51.1425 125.618 50.9614 125.308 50.7996C125.258 50.7734 125.208 50.7474 125.159 50.7216C124.884 50.5776 124.619 50.4388 124.331 50.3017C123.544 49.9262 122.653 49.5925 121.546 49.5448L121.881 50.0001C125.356 50.0908 128.14 52.5466 128.14 55.5629C128.14 58.6365 125.249 61.1282 121.682 61.1282C118.967 61.1282 116.644 59.685 115.689 57.6405C115.671 57.9564 115.558 58.2378 115.418 58.4672ZM115.316 56.5075C115.256 56.2005 115.224 55.8848 115.224 55.5629C115.224 54.6647 115.471 53.8163 115.909 53.0651L115.575 52.5981C115.505 52.7397 115.442 52.8826 115.386 53.0261C114.96 54.1195 114.915 55.2546 114.943 56.1296C115.08 56.2413 115.207 56.3667 115.316 56.5075ZM126.684 47.7012C126.608 47.6089 126.524 47.5159 126.433 47.423C125.66 46.6331 124.366 45.8858 122.471 45.7309C121.967 45.6897 121.42 45.6903 120.829 45.7432C120.68 45.7566 120.527 45.7734 120.371 45.7937H120.371L119.25 45.94H119.249L118.786 45.0482C117.556 42.6838 115.601 39.4438 112.467 37.0922L107.419 38.5227C107.547 38.6916 107.691 38.8696 107.856 39.0662C107.923 39.1458 107.993 39.229 108.067 39.3157C108.382 39.6878 108.753 40.1245 109.109 40.6151C110.029 41.8788 110.881 43.5188 111.284 46.0751C111.681 48.5864 111.425 50.4972 111.23 51.953L111.223 51.9994C111.205 52.1413 111.187 52.276 111.171 52.4042C111.518 52.5461 111.822 52.7159 112.082 52.9057C112.309 52.2816 112.614 51.6872 112.987 51.131C113.195 50.7531 113.442 50.3818 113.734 50.0247L113.337 49.4701L115.53 48.4348C116.142 48.0412 116.855 47.6963 117.681 47.4193L119.39 46.6125L119.611 46.9125C120.349 46.7674 121.118 46.6908 121.908 46.6908C123.631 46.6908 125.256 47.0559 126.684 47.7012ZM97.5041 22.7836C97.0373 25.0725 96.3311 26.5456 95.4767 27.5101C94.4449 28.675 93.3049 28.9659 92.7094 29.1179C92.687 29.1236 92.6653 29.1292 92.6444 29.1345C92.3947 29.1988 91.8296 29.2793 91.103 29.3369C91.0953 29.3439 91.0875 29.3508 91.0795 29.3577C91.7643 29.3412 92.5701 29.2701 93.8101 29.1409C96.3304 28.8782 97.7451 27.7466 98.8525 26.6604L99.2707 26.2502C98.7358 25.7098 98.2778 25.0077 97.948 24.243C97.7387 23.7576 97.5876 23.2623 97.5041 22.7836ZM82.7667 38.5782C83.845 39.9358 84.2675 41.1416 84.4772 41.781C84.8382 41.6182 85.3429 41.3393 86.0343 40.8855L86.0485 40.8761L86.063 40.8671C86.6052 40.5287 87.1866 40.4129 87.6801 40.3829C87.3022 40.0352 86.9648 39.68 86.663 39.32C85.839 39.2082 84.9635 39.066 84.0972 38.8869C83.6576 38.796 83.2107 38.6937 82.7667 38.5782ZM69.7682 63.1874C69.7676 63.189 69.7605 63.1788 69.7486 63.1522C69.7628 63.1726 69.7687 63.1859 69.7682 63.1874ZM69.7802 59.3241C70.2242 58.6798 70.8332 58.0084 71.6777 57.3368L71.6863 57.33L71.6949 57.3234C71.8991 57.166 72.1208 56.9909 72.3587 56.803C72.7134 56.5229 73.1043 56.2141 73.5278 55.8925C72.5642 55.9475 71.7065 55.8542 71.0009 55.6933C70.7321 56.208 70.4593 56.7925 70.2003 57.4212C70.1409 57.6012 70.0729 57.8215 69.9978 58.0711C69.9214 58.4527 69.8459 58.8798 69.7802 59.3241ZM84.8472 52.0319C85.508 52.1205 86.1855 52.2692 86.8779 52.4879C90.5711 53.6542 91.9536 56.2279 92.7718 58.1543C92.9162 58.4943 93.0368 58.7949 93.1446 59.0637C93.37 59.6255 93.5396 60.0482 93.7544 60.4015C93.859 60.5737 93.9358 60.6578 93.9757 60.6945C94.3765 60.6744 95.3588 60.4942 96.8669 60.1365C97.8842 59.8953 99.0656 59.5924 100.335 59.2525C99.7344 59.0961 99.2932 58.7794 98.9592 58.4198C98.6327 58.0683 98.3681 57.631 98.1265 57.2007C98.0004 56.9761 97.851 56.698 97.6884 56.3951C97.5485 56.1347 97.3989 55.856 97.2458 55.5774L97.2337 55.5554L97.2226 55.5331C96.1541 53.3821 94.5982 51.8398 93.612 51.0547C93.3571 51.1476 93.0914 51.2334 92.8173 51.3133L92.7743 51.3258L92.7305 51.3361C91.2635 51.6795 90.1049 51.691 89.1068 51.6575C88.9012 51.6506 88.711 51.6426 88.5317 51.6352C87.8172 51.6053 87.2766 51.5827 86.6375 51.6634L86.6126 51.6665L86.5877 51.6689C86.0926 51.7168 85.5134 51.8432 84.8472 52.0319ZM103.747 21.2801C103.749 21.2841 103.75 21.2882 103.752 21.2922C103.754 21.2963 103.756 21.3003 103.757 21.3044C103.788 21.3756 103.82 21.4448 103.853 21.512C103.826 21.4408 103.797 21.3684 103.765 21.295C103.733 21.2195 103.699 21.1463 103.664 21.0753C103.69 21.1426 103.717 21.2109 103.747 21.2801ZM59.0074 55.9913L65.8806 57.7951C66.1388 57.0131 66.5232 56.3676 67.1231 55.9531C67.3434 55.8009 67.5701 55.6942 67.7953 55.624C68.1026 54.9567 68.4233 54.3411 68.7398 53.8076C68.8376 53.6428 68.9397 53.4774 69.0458 53.3149L69.1213 53.1962L59.0074 55.9913ZM108.507 48.8702C108.515 48.1305 108.468 47.3219 108.326 46.4216C107.983 44.2434 107.284 42.949 106.58 41.981C106.285 41.5754 105.991 41.2288 105.681 40.8626C105.601 40.7677 105.519 40.6714 105.436 40.5724C105.05 40.1122 104.637 39.5967 104.314 38.9968C104.102 38.602 103.993 38.1807 103.964 37.7593C103.261 36.7247 102.578 35.3449 102.257 33.813C100.775 36.4131 98.4115 37.8827 96.2351 38.6935C95.8949 38.8202 95.5584 38.9313 95.2291 39.0286C96.8996 39.0106 98.6298 39.3628 100.316 40.2777L100.321 40.2803L100.326 40.283C102.936 41.7232 104.759 43.473 105.95 45.0196C106.545 45.7927 106.989 46.5228 107.295 47.1496C107.476 47.518 107.623 47.8792 107.721 48.2102C107.964 48.3883 108.247 48.6132 108.507 48.8702ZM80.8649 32.9444C80.8234 32.9533 80.7835 32.9636 80.7457 32.9754C80.5793 33.0274 80.4688 33.101 80.3832 33.2174C80.2884 33.346 80.1566 33.6212 80.1566 34.1657C80.1566 34.3139 80.2233 34.5208 80.5079 34.7752C80.6646 34.9056 80.8785 35.0477 81.1683 35.2003C81.9486 35.6109 83.0349 35.9561 84.2611 36.2337C83.9932 36.1455 83.733 36.0472 83.4838 35.9375C82.2437 35.3917 81.083 34.4667 80.8723 32.9974C80.8697 32.9797 80.8673 32.9621 80.8649 32.9444ZM89.5647 36.9959C90.2702 37.0511 90.7614 37.0716 90.9028 37.0716C91.1459 37.0716 91.6215 37.0506 92.2366 36.9667C91.5136 37.0005 90.5793 37.0227 89.5647 36.9959ZM109.849 30.0234C109.944 30.0744 110.027 30.119 110.098 30.156C110.407 30.3175 110.898 30.4932 111.388 30.6166C111.002 29.5703 110.547 28.2339 110.227 27.296C110.154 27.0834 110.089 26.8912 110.033 26.7276C109.947 26.5252 109.868 26.3259 109.794 26.1322C109.571 26.2803 109.366 26.4475 109.183 26.631C109.26 27.1687 109.312 27.6925 109.331 28.1669C109.555 28.4019 109.766 28.7023 109.871 29.0541C109.949 29.3143 109.983 29.6596 109.849 30.0234ZM98.3549 32.0767L98.2235 31.9639C96.6018 33.0279 93.9314 34.1738 90.6067 34.2673C89.2292 34.3061 88.2348 34.3029 87.3011 34.2093C87.3049 34.2239 87.3087 34.2385 87.3125 34.2531C87.4995 34.2775 87.6909 34.2994 87.8862 34.3187C90.3075 34.558 92.8187 34.3642 93.2414 34.3195C93.7821 34.2624 95.4659 33.9786 97.1887 33.1083C97.6571 32.8717 98.1251 32.5937 98.5732 32.2665C98.4966 32.1997 98.4239 32.1365 98.3549 32.0767ZM105.86 50.2242C105.72 50.1187 105.573 50.0166 105.429 49.9173L104.93 49.5752L104.873 49.0285C104.864 48.9486 104.79 48.6486 104.546 48.1492C104.314 47.6756 103.96 47.0864 103.463 46.4416C102.471 45.1533 100.935 43.674 98.7212 42.4515C96.8061 41.4146 94.7585 41.4048 92.7478 41.9945C92.7227 42.1394 92.6767 42.2878 92.6054 42.4379C92.4687 42.7254 92.2636 42.9664 92.0225 43.1689C91.9547 43.226 91.8838 43.2802 91.8103 43.3317C93.3096 43.4058 94.8111 43.7789 96.0306 44.6987C97.9282 46.1301 99.1164 48.0394 100.007 49.4709C100.106 49.6302 100.202 49.7836 100.294 49.9298C100.792 50.7175 101.163 51.2439 101.513 51.5637C101.564 51.6104 101.61 51.6481 101.65 51.6783C102.962 51.2336 104.438 50.7292 105.265 50.4354L105.86 50.2242ZM92.7998 47.6727C92.3099 47.5786 91.6389 47.6166 90.6961 47.8168C89.9319 47.9792 89.1318 48.2134 88.2328 48.4765C87.9631 48.5554 87.6845 48.637 87.3953 48.72C87.0533 48.8181 86.6973 48.9184 86.3294 49.0153C86.5494 48.9854 86.7695 48.9611 86.9879 48.944C87.53 48.9015 88.0638 48.9033 88.5612 48.9745C88.8866 49.021 89.2094 49.0481 89.5256 49.0586C89.7617 49.0665 89.9941 49.0651 90.2211 49.0557C90.907 49.0272 91.5438 48.9257 92.0848 48.7843C92.2899 48.7307 92.4747 48.6731 92.6379 48.6146C93.0261 48.4605 93.2506 48.3265 93.3774 48.2322L93.4769 48.037C93.4574 48.0048 93.4296 47.9651 93.39 47.9171C93.2039 47.828 93.0074 47.7462 92.7998 47.6727ZM108.15 54.5964C108.146 54.5777 108.143 54.559 108.14 54.5403L108.033 54.5305C107.313 54.4655 106.719 54.3031 106.2 53.9854C104.618 54.4801 101.993 55.3068 101.522 55.4752C101.522 55.4754 101.521 55.4756 101.521 55.4758C101.499 55.5447 101.481 55.612 101.47 55.6778C101.427 55.9178 101.475 56.0269 101.551 56.1102C101.643 56.212 101.707 56.2757 101.756 56.3187C101.781 56.3414 101.799 56.3546 101.809 56.3617C101.81 56.3618 101.811 56.362 101.813 56.3621C102.093 56.3339 102.495 56.2598 103.056 56.1174C103.797 55.9295 104.689 55.6577 105.778 55.3213C105.867 55.2938 105.958 55.266 106.049 55.2378C106.693 55.0388 107.394 54.8222 108.15 54.5964ZM101.591 56.3757C101.586 56.3758 101.582 56.3758 101.577 56.3758C101.582 56.3758 101.587 56.3757 101.592 56.3757M101.11 55.5819C101.244 55.8279 101.356 56.0267 101.447 56.1799C101.493 56.2565 101.533 56.3217 101.568 56.3757M83.5424 49.621C83.6149 49.5962 83.6867 49.5722 83.7579 49.549C82.3361 49.7446 80.8363 49.7545 79.3607 49.3484C79.4056 49.414 79.4466 49.4841 79.4825 49.559C79.7349 50.086 79.6179 50.602 79.367 50.98C79.3661 50.9814 79.3652 50.9827 79.3643 50.9841C79.9788 50.7654 80.6503 50.5293 81.3362 50.3011C82.0487 50.064 82.7967 49.8284 83.5424 49.621ZM77.0073 50.8696C77.0158 50.8739 77.0145 50.8739 77.0061 50.869C77.0065 50.8692 77.0069 50.8694 77.0073 50.8696ZM76.9241 49.5436C76.9247 49.5433 76.9221 49.5452 76.9158 49.5491C76.9207 49.5456 76.9236 49.5437 76.9241 49.5436ZM76.0034 21.5353C75.4493 22.0627 74.6584 22.4017 73.7776 22.4299C74.2654 22.7187 74.7622 22.9688 75.2197 23.1669C75.954 23.485 76.4332 23.6025 76.5698 23.6147C76.692 23.6255 76.7983 23.631 76.8903 23.6327C76.8719 23.5454 76.8547 23.4556 76.8382 23.364C76.7773 23.024 76.6094 22.7043 76.3451 22.2013C76.2813 22.0799 76.2119 21.9477 76.137 21.8021C76.0936 21.7177 76.0486 21.6287 76.0034 21.5353ZM73.6583 19.5714C73.5566 19.5714 73.4843 19.6408 73.4843 19.7156C73.4843 19.7904 73.5566 19.8599 73.6583 19.8599C73.7601 19.8599 73.8324 19.7904 73.8324 19.7156C73.8324 19.6408 73.7601 19.5714 73.6583 19.5714ZM58.7763 25.886C60.1601 25.5051 61.6485 26.1576 62.0958 27.355C62.544 28.5546 61.7724 29.8329 60.386 30.2145L51.2772 32.7215C52.1494 32.7598 52.9747 32.9278 53.7322 33.2526C54.9557 33.7772 55.8486 34.6447 56.4571 35.7373C57.5891 35.6352 58.658 35.7013 59.6045 36.011C60.7432 36.3836 61.5967 37.0755 62.1178 38.0203L62.123 38.0296L62.1279 38.039C62.463 38.6726 62.6412 39.3388 62.7327 40.0027L62.8992 41.2103L61.7759 41.3805C61.8376 41.4243 61.898 41.4699 61.957 41.5174C62.8307 42.2208 63.1846 43.1681 63.1823 44.1791L63.1823 44.1857L63.1822 44.1923C63.1604 45.722 62.5694 47.0624 61.3352 48.0876C60.1382 49.082 58.4689 49.6698 56.5109 49.9666C54.5173 50.2688 52.6514 50.2068 51.2436 49.406C49.9835 48.6892 49.3859 47.5609 49.2227 46.2795C47.4077 46.4286 45.7342 46.0987 44.4117 45.1085C42.8977 44.0072 42.2243 42.3815 42.1216 40.5274C42.0309 39.6014 42.221 38.7156 42.5403 37.8784C43.0379 36.5263 43.8475 35.3811 45.0068 34.5084C45.0507 34.4754 45.095 34.4428 45.1397 34.4107L39.2418 36.034C37.858 36.4148 36.3696 35.7623 35.9223 34.5649C35.4741 33.3653 36.2457 32.087 37.6321 31.7054L58.7763 25.886ZM52.325 46.5772C52.4662 46.9431 52.679 47.1408 52.8877 47.2595C53.1323 47.3986 53.5159 47.5155 54.0933 47.5512C53.9485 47.5003 53.8055 47.4373 53.6675 47.3596C53.2803 47.1511 52.9522 46.8719 52.7179 46.5177L52.325 46.5772ZM56.5266 42.943C56.5612 42.946 56.5951 42.9488 56.6282 42.9516C56.9403 42.9778 57.1816 42.9958 57.3565 43.0067C57.4857 43.0147 57.5535 43.017 57.5786 43.0179C57.5925 43.0184 57.5934 43.0184 57.5846 43.0187L57.6493 43.0167L57.7139 43.0195C58.2768 43.0438 59.0133 43.2028 59.5269 43.7621C59.9694 44.244 60.0415 44.8013 59.9942 45.255C60.1209 44.9423 60.1912 44.5835 60.1978 44.1676C60.1976 43.69 60.0459 43.4985 59.9195 43.3967C59.7555 43.2647 59.3853 43.089 58.5928 43.0237C57.8183 42.9862 57.139 42.9433 56.5569 42.8959C56.5469 42.9117 56.5368 42.9274 56.5266 42.943ZM57.8965 38.2871C58.3594 38.4587 58.7836 38.7392 59.099 39.1748C59.1024 39.1743 59.1059 39.1738 59.1095 39.1733L59.4227 39.1258C59.4209 39.1223 59.4191 39.1188 59.4173 39.1153C59.2185 38.7597 58.9427 38.5456 58.5449 38.4154C58.3689 38.3578 58.1546 38.3125 57.8965 38.2871ZM53.8502 37.0083C53.7361 36.7815 53.6127 36.5835 53.4812 36.4109L53.4846 36.5163C53.9198 37.1644 54.1039 37.9404 54.1423 38.7396C54.144 38.6971 54.1454 38.6544 54.1463 38.6115C54.1412 38.0544 54.0382 37.5314 53.8502 37.0083ZM53.5527 38.7479C53.5527 38.7484 53.5527 38.7488 53.5527 38.7493L52.3013 38.7452L53.0511 39.4688C52.4617 39.9223 52.1575 40.52 52.2262 41.4381L52.2273 41.4526L52.228 41.4672C52.2324 41.558 52.2419 41.6396 52.2551 41.7127L50.7806 41.9104L50.3901 41.5402L49.2479 41.6037C49.2476 41.5989 49.2472 41.5941 49.2469 41.5894C49.2466 41.5844 49.2464 41.5795 49.2461 41.5746L50.3832 41.5336L50.1156 41.2799C50.3848 41.1676 50.5678 41.0206 50.7032 40.8528C50.9561 40.5396 51.1689 39.9952 51.1657 39.0742L51.1657 39.0711C51.1657 38.9527 51.1616 38.8437 51.1544 38.7434C51.1544 38.7427 51.1543 38.7421 51.1543 38.7415C51.1489 38.6669 51.1417 38.5972 51.1331 38.5321L52.0573 38.5096L52.3008 38.7447L53.5527 38.7461C53.5527 38.7467 53.5527 38.7473 53.5527 38.7479ZM50.8423 37.7295C50.9362 37.8337 51.0716 38.0666 51.1331 38.5321L50.5656 38.546C50.5676 38.6084 50.5685 38.6729 50.5682 38.7395L50.5682 38.7427C50.5663 39.995 50.1976 40.6292 49.7768 40.9588L50.1156 41.2799C49.9386 41.3538 49.7243 41.4126 49.4618 41.4524C49.3811 41.4646 49.3074 41.4734 49.24 41.4793C49.2419 41.5159 49.2442 41.5526 49.2469 41.5894C49.2559 41.7642 49.2752 41.9373 49.306 42.108M46.5675 43.301C46.496 43.2576 46.4283 43.2116 46.364 43.1632L46.3532 43.1551L46.3423 43.1471C45.6623 42.655 45.1762 41.8117 45.1016 40.384L45.1001 40.3552L45.0971 40.3265C45.0671 40.0393 45.0865 39.7361 45.1562 39.4074C45.1413 39.5975 45.1342 39.7903 45.1343 39.9853L45.1343 40.0051L45.1351 40.0249C45.1783 41.2171 45.4947 42.3704 46.4023 43.1654C46.4563 43.2127 46.5114 43.2579 46.5675 43.301ZM52.7218 35.7188C52.7965 35.7742 52.8695 35.8331 52.9406 35.8958C52.9832 35.9334 53.0244 35.9717 53.0643 36.0107L53.0913 35.9899C52.9725 35.8854 52.8491 35.7957 52.7218 35.7188ZM48.1189 39.9643C48.1188 39.9708 48.1188 39.9774 48.1188 39.9841L46.6266 39.9847L48.1181 39.9445C48.1183 39.9511 48.1186 39.9577 48.1189 39.9643Z" fill="white"/>
<path d="M87.7144 11.3565C82.1489 9.15196 75.3335 11.6497 72.4918 16.9352C71.238 19.2673 70.9673 21.7526 71.5343 23.9911C78.0103 29.1201 86.3795 29.0744 89.7547 28.4104C90.9222 27.4525 91.9157 26.2776 92.6465 24.9184C93.6116 23.1232 93.9942 21.2374 93.8606 19.4431C94.7711 18.6576 96.2588 17.0373 94.9258 16.84C93.5928 16.6428 92.923 16.0016 92.7547 15.7057C91.7187 13.8187 89.9996 12.2616 87.7144 11.3565Z" fill="#FED3B8"/>
<path opacity="0.2" d="M94.9258 16.84C93.5927 16.6427 92.9229 16.0015 92.7547 15.7056C92.5026 15.2464 92.21 14.8068 91.8786 14.3913C92.4226 14.2154 92.9782 14.0271 93.5494 13.8254C94.7369 14.5323 96.2169 16.39 95.4814 21.3217C94.6136 27.1412 92.4936 27.5654 91.4594 27.8317C91.3466 27.8607 90.902 27.9353 90.2314 27.9981C91.1934 27.122 92.0173 26.0885 92.6464 24.9183C93.6115 23.1232 93.9942 21.2373 93.8606 19.443C94.7711 18.6575 96.2588 17.0372 94.9258 16.84Z" fill="#A1B1C0"/>
<path d="M90.0525 16.1377C90.2869 16.7882 90.1329 17.4069 89.7084 17.5196C89.284 17.6322 88.7499 17.1962 88.5155 16.5457C88.2811 15.8952 88.4351 15.2765 88.8596 15.1638C89.284 15.0511 89.8181 15.4871 90.0525 16.1377Z" fill="#07110D"/>
<path d="M79.2997 21.3217C77.9208 18.915 78.7252 17.327 79.2997 16.8338C81.3108 16.8338 82.862 16.3899 83.609 16.2913C92.8021 15.0583 95.56 12.6911 98.4903 11.6061C101.282 10.5722 99.6969 9.38679 97.3986 9.38679C93.6639 9.48543 93.288 9.04157 93.0319 8.40044C92.3424 6.67432 89.7454 3.01497 83.9537 2.18643C76.7141 1.15076 69.325 4.61947 66.5035 7.91304C63.2174 11.7488 63.6714 18.264 66.3718 23.3437C69.0723 28.4235 74.1285 30.4455 78.2654 28.3741C82.4023 26.3028 81.0235 24.3301 79.2997 21.3217Z" fill="#419F7D"/>
<path d="M79.2723 27.2719C78.3772 27.6486 78.9156 28.2766 79.2723 28.5071C84.4316 30.3919 87.32 29.6703 90 28.3995C90.104 28.3502 90.056 28.2157 89.9372 28.217C81.7182 28.3058 80.3096 26.8352 79.2723 27.2719Z" fill="#484745"/>
<path d="M79.3003 21.3218C77.9213 18.9151 78.7257 17.3271 79.3003 16.8339C79.013 16.6038 78.312 16.2125 77.8063 16.4887C77.1743 16.8339 77.4616 20.1382 78.8406 22.4561C80.2196 24.774 79.5299 26.4015 78.8406 26.8947C78.2468 27.3196 75.9781 29.3606 71.405 28.3743C73.6254 29.4201 76.0746 29.4714 78.266 28.3743C82.4029 26.3029 81.024 24.3302 79.3003 21.3218Z" fill="#5E5B58"/>
<path d="M77.0021 19.2502C77.14 18.1455 76.5999 16.9487 76.3127 16.4884C74.3399 16.3241 70.2451 16.5772 69.6475 18.905C68.9006 21.8148 74.7613 24.6752 76.4276 24.8232C78.0939 24.9712 78.5536 24.4396 78.6685 24.0889C78.5236 23.9426 78.4238 23.6555 78.3237 23.097C78.0939 21.8147 76.8298 20.6311 77.0021 19.2502Z" fill="#33755D"/>
<path d="M75.3352 19.6449C75.3352 20.4348 74.5892 21.0751 73.669 21.0751C72.7487 21.0751 72.0027 20.4348 72.0027 19.6449C72.0027 18.855 72.7487 18.2147 73.669 18.2147C74.5892 18.2147 75.3352 18.855 75.3352 19.6449Z" fill="#07110D"/>
<path d="M79.3 21.3217C77.9211 18.9149 78.7255 17.3269 79.3 16.8337C81.3111 16.8337 82.8623 16.3899 83.6092 16.2912C92.8024 15.0583 95.5603 12.691 98.4906 11.606C101.283 10.5722 99.6972 9.38674 97.3989 9.38674C93.6642 9.48538 93.2883 9.04152 93.0322 8.40039C92.9173 10.6197 87.9185 11.5567 83.207 13.5294C76.9194 16.1621 74.3588 16.094 79.3 21.3217Z" fill="#33755D"/>
<path d="M79.3003 16.8337C79.4563 16.8337 79.6095 16.831 79.7598 16.826C79.4917 17.0423 78.8956 17.7788 79.5874 18.3132C80.7366 19.2009 79.7063 21.3216 78.5551 19.1516C78.4444 17.9572 78.9221 17.1583 79.3003 16.8337Z" fill="#07110D"/>
<path d="M71.1414 17.8694C71.5244 17.5735 72.7042 16.9817 74.359 16.9817C73.6695 17.5735 71.9266 17.8201 71.1414 17.8694Z" fill="#65BE9E"/>
<path d="M89.2974 25.1685C86.6511 24.7478 85.5052 23.7218 85.2753 23.1958C86.1947 22.8999 88.4355 21.7164 92.515 21.9135C91.6532 24.1821 92.4001 25.6616 89.2974 25.1685Z" fill="#636360"/>
<path d="M89.2977 25.1684C87.6384 24.9047 86.569 24.4029 85.9454 23.9356C86.5074 23.7219 87.9647 23.3931 89.2977 23.7877C90.6308 24.1822 91.3134 24.7083 91.4881 24.922C91.1243 25.2544 90.5 25.3596 89.2977 25.1684Z" fill="#DE4F4F"/>
<path d="M86.3341 22.8014C87.555 22.3568 89.5492 21.7702 92.5155 21.9135C92.397 22.2254 92.3089 22.5224 92.237 22.8014C91.6595 22.6534 90.1597 22.5054 88.7807 23.0973C87.4017 23.6891 86.5751 23.1466 86.3341 22.8014Z" fill="white"/>
<path d="M79.0707 28.1771C78.7833 28.0291 78.6492 28.1444 78.6684 28.3746C79.9901 29.4596 82.6327 29.8048 83.6095 29.9527C84.5863 30.1007 84.3565 29.6768 84.1841 29.6568C82.0582 29.4102 79.5945 28.4469 79.0707 28.1771Z" fill="#F8BC91"/>
<path opacity="0.2" d="M77.0016 19.2503C77.1395 18.1456 76.5994 16.9488 76.3121 16.4885C84.0687 16.5872 88.0908 15.9461 94.2387 13.5295C95.4261 14.2364 96.9852 16.39 96.2498 21.3217C95.382 27.1412 93.262 27.5654 92.2278 27.8317C91.6532 27.9796 82.4601 29.1687 78.668 24.089C78.523 23.9427 78.4232 23.6555 78.3231 23.0971C78.0933 21.8148 76.8292 20.6312 77.0016 19.2503Z" fill="#A1B1C0"/>
<path d="M33.4948 40.1201C33.2473 39.5598 33.5759 38.9334 34.2287 38.721C34.8815 38.5086 35.6113 38.7906 35.8588 39.3509L37.1038 42.1699C37.3512 42.7303 37.0226 43.3567 36.3698 43.5691C35.717 43.7815 34.9872 43.4994 34.7398 42.9391L33.4948 40.1201Z" fill="#33755D"/>
<path d="M33.1384 34.7398C32.4187 32.8212 33.6473 30.7651 35.8825 30.1474L59.2907 23.6782C61.5259 23.0605 63.9213 24.115 64.641 26.0336L71.4358 44.1478C72.1555 46.0664 70.9269 48.1225 68.6917 48.7402L45.2835 55.2094C43.0483 55.8271 40.6529 54.7726 39.9332 52.854L33.1384 34.7398Z" fill="#419F7D"/>
<path d="M49.2814 55.8654C49.4893 55.2817 50.2091 54.9531 50.8892 55.1316L67.0925 59.384C67.7726 59.5624 68.1553 60.1803 67.9474 60.764C67.7395 61.3477 67.0196 61.6762 66.3396 61.4978L50.1362 57.2454C49.4562 57.067 49.0734 56.4491 49.2814 55.8654Z" fill="#1C4435"/>
<path d="M72.3887 47.6895L43.5764 55.6522C42.6478 55.9088 42.1374 56.7629 42.4364 57.56L74.6114 48.668C74.3124 47.871 73.3173 47.4329 72.3887 47.6895Z" fill="#33755D"/>
<path d="M44.6587 58.5386L73.471 50.5759C74.3996 50.3193 74.91 49.4651 74.611 48.6681L42.436 57.5601C42.735 58.3571 43.7301 58.7952 44.6587 58.5386Z" fill="#1C4435"/>
<path fill-rule="evenodd" clip-rule="evenodd" d="M60.686 27.6784C60.8797 28.1971 60.5469 28.7525 59.9426 28.9188L38.7984 34.7383C38.1941 34.9046 37.5471 34.6189 37.3533 34.1002C37.1595 33.5815 37.4923 33.0261 38.0967 32.8598L59.2408 27.0403C59.8452 26.874 60.4922 27.1596 60.686 27.6784Z" fill="#65BE9E"/>
<path fill-rule="evenodd" clip-rule="evenodd" d="M51.9564 38.2521C51.0313 38.987 50.6435 39.9926 50.7886 41.2745C50.8007 41.4123 50.8203 41.5447 50.8475 41.6717C51.6533 41.0192 52.0278 39.9616 51.9694 38.4909C51.9664 38.4097 51.9621 38.3301 51.9564 38.2521ZM53.8987 43.8596C53.8582 43.8551 53.818 43.8503 53.7783 43.8453C54.1205 43.5931 54.4205 43.3084 54.6768 42.9914C55.0713 42.5037 55.3868 41.9765 55.6238 41.4117C56.3178 41.5186 57.3102 41.6271 58.6067 41.73C60.5476 41.9452 61.5766 42.7747 61.6358 44.2924C61.7049 46.8035 59.9793 48.285 56.4955 48.7322C52.865 49.1981 51.0106 48.0767 50.8879 45.3403L53.9682 44.9449C53.9595 45.5429 54.1692 45.947 54.6492 46.217C55.0482 46.4642 55.7756 46.5035 56.8758 46.3623C57.9026 46.2305 58.4647 45.8931 58.5467 45.2857C58.6288 44.6783 58.3245 44.3526 57.6704 44.3039C57.406 44.3047 56.1636 44.1658 53.8987 43.8596ZM57.6992 39.8239C57.4136 39.401 56.8813 39.2081 56.138 39.2227C56.1573 38.9669 56.1647 38.7057 56.1601 38.4392C56.1376 37.9087 56.0512 37.4012 55.91 36.9057C58.2065 36.6566 59.7386 37.2209 60.4993 38.5692C60.7686 39.0652 60.9356 39.6074 61.0368 40.1913L59.2033 40.4266C58.5432 40.5113 58.0418 40.3104 57.6992 39.8239Z" fill="white"/>
<path d="M43.8116 40.2169C43.7091 39.4838 43.8176 38.7543 44.0618 38.0073C44.8003 35.6409 46.5415 34.2639 49.2926 33.9063C52.0436 33.5486 53.9365 34.4533 54.9982 36.5857C55.2633 37.2665 55.4266 37.9606 55.4611 38.7025C55.4977 40.3461 55.0629 41.7711 54.1495 42.9472C53.2898 44.0542 51.875 44.7357 49.973 44.983C48.2069 45.2125 46.7688 44.9019 45.6925 44.0466C44.5823 43.1956 43.9643 41.9076 43.8116 40.2169ZM46.7324 39.8372C46.8968 42.024 47.9604 42.9742 49.8624 42.727C51.7644 42.4798 52.6707 41.2734 52.5742 39.0778C52.4849 36.9124 51.4142 35.9319 49.4443 36.188C47.5423 36.4352 46.6431 37.6717 46.7324 39.8372Z" fill="white"/>
<path d="M91.6716 66.9686C91.6716 71.1583 87.7304 74.5548 82.8686 74.5548C78.0068 74.5548 74.0656 71.1583 74.0656 66.9686C74.0656 62.7789 78.0068 59.3824 82.8686 59.3824C87.7304 59.3824 91.6716 62.7789 91.6716 66.9686Z" fill="black"/>
<path d="M87.383 66.385C87.383 68.7484 85.1597 70.6643 82.4172 70.6643C79.6746 70.6643 77.4514 68.7484 77.4514 66.385C77.4514 64.0215 79.6746 62.1056 82.4172 62.1056C85.1597 62.1056 87.383 64.0215 87.383 66.385Z" fill="#ADB2AD"/>
<path d="M85.0129 66.2877C85.0129 67.5232 83.8507 68.5247 82.4171 68.5247C80.9835 68.5247 79.8214 67.5232 79.8214 66.2877C79.8214 65.0523 80.9835 64.0508 82.4171 64.0508C83.8507 64.0508 85.0129 65.0523 85.0129 66.2877Z" fill="#787E76"/>
<path d="M84.4206 66.25C84.4206 67.1761 83.5459 67.9268 82.467 67.9268C81.3881 67.9268 80.5134 67.1761 80.5134 66.25C80.5134 65.324 81.3881 64.5732 82.467 64.5732C83.5459 64.5732 84.4206 65.324 84.4206 66.25Z" fill="#E5E7E4"/>
<path d="M130.721 55.4922C130.721 59.6819 126.78 63.0783 121.918 63.0783C117.057 63.0783 113.115 59.6819 113.115 55.4922C113.115 51.3024 117.057 47.906 121.918 47.906C126.78 47.906 130.721 51.3024 130.721 55.4922Z" fill="black"/>
<path d="M126.658 55.4921C126.658 57.8556 124.435 59.7715 121.693 59.7715C118.95 59.7715 116.727 57.8556 116.727 55.4921C116.727 53.1287 118.95 51.2128 121.693 51.2128C124.435 51.2128 126.658 53.1287 126.658 55.4921Z" fill="#ADB2AD"/>
<path d="M124.401 55.395C124.401 56.6305 123.239 57.632 121.806 57.632C120.372 57.632 119.21 56.6305 119.21 55.395C119.21 54.1596 120.372 53.1581 121.806 53.1581C123.239 53.1581 124.401 54.1596 124.401 55.395Z" fill="#787E76"/>
<path d="M123.716 55.4002C123.716 56.3263 122.841 57.077 121.762 57.077C120.683 57.077 119.809 56.3263 119.809 55.4002C119.809 54.4741 120.683 53.7234 121.762 53.7234C122.841 53.7234 123.716 54.4741 123.716 55.4002Z" fill="#E5E7E4"/>
<path d="M119.924 56.1401L115.442 49.8768L118.89 48.2493L123.314 54.266C123.774 54.9072 124.118 56.1401 122.912 56.7812C121.705 57.4224 120.499 56.9785 119.924 56.1401Z" fill="#E5E7E4"/>
<path d="M80.5782 67.0483L76.0965 60.785L79.544 59.1575L83.9682 65.1742C84.4279 65.8154 84.7727 67.0483 83.566 67.6894C82.3594 68.3306 81.1528 67.8867 80.5782 67.0483Z" fill="#E5E7E4"/>
<path fill-rule="evenodd" clip-rule="evenodd" d="M118.131 48.936C118.292 48.8489 118.505 48.8903 118.606 49.0285L122.629 54.5028C122.73 54.641 122.682 54.8237 122.521 54.9109C122.36 54.9981 122.147 54.9567 122.045 54.8184L118.023 49.3442C117.922 49.2059 117.97 49.0232 118.131 48.936Z" fill="#FBFAFA"/>
<path fill-rule="evenodd" clip-rule="evenodd" d="M78.7858 59.8444C78.9468 59.7572 79.1597 59.7986 79.2613 59.9368L83.2833 65.4111C83.3849 65.5493 83.3367 65.732 83.1756 65.8192C83.0146 65.9064 82.8017 65.865 82.7001 65.7268L78.6781 60.2525C78.5765 60.1143 78.6247 59.9315 78.7858 59.8444Z" fill="#FBFAFA"/>
<path d="M104.839 30.0191C104.21 26.5894 102.804 24.4325 102.18 23.7828L102.11 23.3928C103.045 23.4196 104.841 27.624 105.164 29.7567L104.839 30.0191Z" fill="#242838"/>
<path d="M102.064 22.8642C102.702 24.3426 102.613 25.7337 101.865 25.9712C101.118 26.2087 99.9952 25.2027 99.3575 23.7242C98.7199 22.2458 98.809 20.8547 99.5565 20.6172C100.304 20.3797 101.427 21.3857 102.064 22.8642Z" fill="#33755D"/>
<path d="M101.628 23.0026C102.163 24.2429 102.088 25.4099 101.461 25.6091C100.834 25.8083 99.8919 24.9644 99.357 23.7241C98.8221 22.4838 98.8968 21.3169 99.5239 21.1176C100.151 20.9184 101.093 21.7623 101.628 23.0026Z" fill="#419F7D"/>
<path d="M117.968 28.8671C117.968 31.5363 115.447 33.7002 112.337 33.7002C109.228 33.7002 106.706 31.5363 106.706 28.8671C106.706 26.1978 109.228 24.0339 112.337 24.0339C115.447 24.0339 117.968 26.1978 117.968 28.8671Z" fill="#FBEA5C"/>
<path d="M117.164 29.0643C117.164 31.7336 114.643 33.8975 111.533 33.8975C108.423 33.8975 105.902 31.7336 105.902 29.0643C105.902 26.3951 108.423 24.2312 111.533 24.2312C114.643 24.2312 117.164 26.3951 117.164 29.0643Z" fill="#FEF497"/>
<path d="M115.34 26.2508C115.553 26.8215 115.422 27.3673 115.049 27.47C114.675 27.5727 114.2 27.1933 113.987 26.6227C113.774 26.052 113.904 25.5061 114.278 25.4034C114.651 25.3007 115.127 25.6801 115.34 26.2508Z" fill="white"/>
<path d="M100.961 54.2166C100.409 54.4139 100.233 53.8056 100.214 53.4769C101.536 53.033 104.512 52.0269 105.845 51.5535C106.672 52.1847 106.343 52.5069 106.075 52.5891C104.6 53.0494 101.513 54.0194 100.961 54.2166Z" fill="#F8BC91"/>
<path d="M100.385 56.8303C99.5815 55.9426 100.137 54.8247 100.501 54.1672C101.937 53.7233 105.534 52.52 106.362 52.2438C106.879 52.737 107.108 53.0821 108.199 53.1808C111.095 53.0229 111.798 54.369 111.759 54.895C111.166 55.0759 109.164 55.67 105.665 56.7356C101.794 57.9146 101.245 57.7808 100.385 56.8303Z" fill="#07110D"/>
<path d="M67.2417 58.359C67.701 56.6822 68.4481 56.6328 68.8503 56.7808C68.563 57.5863 68.0575 59.4933 67.6438 60.6769C66.8394 60.4796 66.8392 59.6412 67.2417 58.359Z" fill="#F82725"/>
<path d="M86.809 64.4745C85.6024 64.0306 78.3503 65.6581 77.6021 67.039C69.7892 69.0117 67.5293 68.1241 67.2988 63.8333C67.0831 59.8182 69.9407 53.7232 71.3197 52.7368C72.4688 53.6739 75.4566 53.2793 76.7781 53.1314C78.0996 52.9834 85.2243 49.7285 88.3269 50.1723C91.4296 50.6162 94.3025 49.5805 94.7047 48.7914C96.9455 49.7285 99.531 56.0411 100.45 57.1754C101.37 58.3097 104.472 56.9289 109.988 55.3507C108.839 53.3287 110.563 50.9121 109.816 46.1776C109.069 41.4431 106.713 40.3088 105.679 38.3854C104.645 36.462 107.345 32.3686 111.769 34.9331C116.194 37.4977 118.722 41.6897 120.158 44.4515C127.34 43.5144 130.041 49.038 128.374 50.0736C126.708 51.1093 124.352 46.8187 118.722 48.3968C113.091 49.975 113.378 54.9068 113.493 56.7315C115.102 57.4812 113.627 58.3919 112.689 58.7536C108.992 59.7892 100.818 62.1072 97.6924 63.0935C93.7853 64.3265 92.5213 64.0798 91.9467 63.5373C91.4871 63.1033 89.5669 63.3402 86.809 64.4745Z" fill="#33755D"/>
<path d="M107.166 26.1053C101.467 29.6562 103.796 35.2455 105.673 37.5963L111.763 35.8702V34.1934C112.944 34.3947 113.616 34.4172 114.866 34.1934C113.563 31.185 111.108 24.5765 110.556 23.1956C108.833 23.2942 107.856 25.5628 107.166 26.1053Z" fill="#33755D"/>
<path d="M118.781 48.5448C113.15 50.123 113.379 54.9068 113.494 56.7315C107.978 58.4248 96.3613 61.831 94.017 61.9099C91.0867 62.0086 92.4657 55.548 86.3753 53.6246C80.2848 51.7012 75.5159 56.0411 72.7005 58.2111C68.7934 61.3181 70.8619 64.2279 69.0233 64.0799C67.5524 63.9616 68.144 59.5591 68.6237 57.3727C69.1398 56.0456 69.7375 54.8481 70.2873 53.9845C70.881 54.3248 72.643 54.8674 74.9413 54.315C77.8142 53.6246 83.8471 50.4364 85.6283 50.3783C86.6635 50.1663 87.6047 50.0689 88.3276 50.1723C91.4303 50.6162 94.3031 49.5805 94.7053 48.7914C96.9461 49.7285 99.5317 56.0411 100.451 57.1754C101.37 58.3097 104.473 56.9289 109.989 55.3507C108.84 53.3287 110.563 50.9121 109.816 46.1776C109.07 41.4431 106.714 40.3088 105.68 38.3854C104.645 36.462 107.346 32.3686 111.77 34.9331C116.194 37.4977 118.722 41.6897 120.159 44.4515C127.341 43.5144 130.041 49.038 128.375 50.0736C126.709 51.1093 124.412 46.9667 118.781 48.5448Z" fill="#419F7D"/>
<path d="M100.443 57.1755C101.362 58.3098 104.465 56.9289 109.98 55.3508C110.324 55.5973 109.867 55.7453 109.809 55.7453C109.752 55.7453 103.604 57.5701 101.88 57.9153C100.157 58.2605 100.042 57.5701 98.6052 54.9562C97.1352 51.9972 94.8134 50.0658 93.8362 49.4699C94.2821 49.2495 94.585 49.011 94.6969 48.7915C96.9377 49.7285 99.5233 56.0412 100.443 57.1755Z" fill="#65BE9E"/>
<path d="M83.9614 54.1174C85.0531 55.1533 78.1007 54.6601 72.0676 61.3677C73.3891 57.0268 81.8354 52.8354 83.9614 54.1174Z" fill="#419F7D"/>
<path d="M73.9066 47.1638C67.977 48.9392 69.9038 51.7174 71.6083 52.8846C75.5152 55.0547 82.3526 50.7147 86.432 50.3202C88.3856 50.0736 89.822 50.6161 92.3501 50.0243C98.6129 48.1995 92.1413 45.1183 90.454 44.7965C88.3856 44.402 81.3185 44.9445 73.9066 47.1638Z" fill="#692815"/>
<path d="M77.0078 49.4324C74.5567 48.8505 73.734 48.3477 72.9296 48.3969C71.7802 48.3969 70.5653 49.531 71.263 50.1228C72.0195 50.7639 72.9876 51.0213 74.8819 51.1092C77.0078 51.2078 79.7083 50.0735 77.0078 49.4324Z" fill="#86391F"/>
<path d="M114.865 34.1932C113.563 31.1849 111.107 24.5763 110.556 23.1954C110.824 22.7844 111.452 22.14 111.82 22.8502C112.188 23.5603 114.731 30.2478 115.957 33.5028C116.403 34.6864 115.036 34.5878 114.865 34.1932Z" fill="#419F7D"/>
<path d="M101.478 26.4759C100.283 26.831 99.9455 27.6431 99.9264 28.0048L102.684 30.372C102.991 30.0926 103.742 29.5238 104.293 29.4843C106.132 29.287 105.155 27.7089 106.419 27.6596C107.683 27.6102 107.626 27.0184 106.592 26.3773C105.557 25.7362 102.972 26.0321 101.478 26.4759Z" fill="#F2AA79"/>
<path d="M110.441 23.3434C108.717 23.442 107.841 25.612 107.152 26.1545C106.019 26.8604 105.203 27.6469 104.638 28.4724C105.821 29.2122 108.457 30.7262 109.335 31.1849C110.657 31.8753 113.817 32.5658 113.242 31.2342C112.783 30.169 111.879 27.4696 111.461 26.2531C110.919 24.9811 110.626 23.8072 110.441 23.3434Z" fill="#419F7D"/>
<path d="M105.5 33.1085C106.737 33.1085 107.74 32.2474 107.74 31.1851C107.74 30.8245 107.625 30.4871 107.424 30.1987C107.538 30.0014 107.912 29.8864 108.085 29.8535C108.775 29.6069 108.372 29.0152 107.97 28.7192C107.928 28.6884 107.89 28.6657 107.855 28.6499C107.913 26.4999 106.879 22.1106 105.959 21.9626V22.3572C106.462 23.0805 107.471 25.3952 107.489 28.8671C107.44 28.9727 107.395 29.098 107.338 29.2124C107.2 29.4886 106.631 29.459 106.363 29.4097C106.097 29.3144 105.806 29.2617 105.5 29.2617C104.262 29.2617 103.259 30.1229 103.259 31.1851C103.259 32.2474 104.262 33.1085 105.5 33.1085Z" fill="#242838"/>
<path d="M105.714 20.6049C106.504 22.4349 106.393 24.1567 105.468 24.4506C104.543 24.7446 103.153 23.4994 102.364 21.6694C101.575 19.8395 101.685 18.1176 102.61 17.8237C103.535 17.5297 104.925 18.7749 105.714 20.6049Z" fill="#33755D"/>
<path d="M105.175 20.7763C105.837 22.3115 105.744 23.7559 104.968 24.0025C104.192 24.2491 103.026 23.2045 102.364 21.6693C101.702 20.1342 101.794 18.6897 102.571 18.4431C103.347 18.1965 104.513 19.2411 105.175 20.7763Z" fill="#419F7D"/>
<path d="M78.6178 34.0455C78.6178 31.1653 81.414 31.3001 82.8122 31.7275C86.4894 32.7633 87.0065 32.9604 90.5114 32.8618C94.3421 32.754 97.1764 31.0699 98.2106 30.1C98.2681 30.1164 98.9346 30.6425 101.141 32.6152C98.6128 37.7935 92.2926 38.2867 90.9136 38.2867C89.9351 38.2867 78.6178 37.6456 78.6178 34.0455Z" fill="black"/>
<path d="M99.532 41.2952C93.7863 38.1784 87.2937 42.7255 84.7656 45.3886C83.9151 46.2845 82.927 47.46 79.6519 48.0025C84.3634 49.4327 89.8218 45.5859 93.2692 46.375C96.7741 47.5586 97.6934 50.567 98.5553 51.6027C98.1416 53.1808 99.532 53.5754 100.279 53.5754C101.926 53.0822 105.588 51.9479 107.059 51.3561C108.898 50.6163 107.231 49.4327 106.369 48.8409C106.254 47.7559 104.358 43.9584 99.532 41.2952Z" fill="#07110D"/>
<path d="M98.5553 51.6026C98.1416 53.1808 99.532 53.5753 100.279 53.5753C100.768 53.4289 101.434 53.226 102.169 52.9976C99.4599 53.328 98.7828 48.4048 95.0585 45.5955C92.0791 43.3481 86.2793 45.1787 83.7519 46.3749C82.965 47.0181 81.8007 47.6465 79.6519 48.0024C84.3634 49.4326 89.8218 45.5858 93.2692 46.3749C96.7741 47.5586 97.6934 50.5669 98.5553 51.6026Z" fill="#0C1C16"/>
<path d="M82.364 32.7689C81.954 29.9103 84.7485 29.7509 86.197 30.0285C89.9941 30.6708 90.5188 30.7096 94 30.3468C97.0538 30.0285 98.7775 28.622 99.9843 27.4383C100.044 27.4486 100.307 27.097 102.777 28.8235C101.005 34.2282 94.8024 35.3805 93.4337 35.5252C92.4626 35.6278 82.8765 36.3421 82.364 32.7689Z" fill="#0C1C16"/>
<path d="M84.9346 30.0509C81.3723 29.755 79.323 28.8673 78.6718 28.3248C76.5495 31.4318 74.2512 30.2975 73.5582 34.8348C73.2709 36.3143 73.788 47.1642 79.3613 47.9533C83.4443 48.5314 85.6852 43.5147 88.6729 43.0215C92.0054 42.3609 91.5039 41.3611 90.6803 40.8515C85.107 37.4486 85.8539 32.6155 84.9346 30.0509Z" fill="#419F7D"/>
<path d="M79.3613 47.9531C83.4443 48.5312 85.6852 43.5145 88.6729 43.0214C91.6163 42.4379 91.5687 41.5899 90.9501 41.0486C90.4118 42.5282 88.2133 41.0486 86.9492 41.8377C84.0189 43.7611 83.5018 43.2186 83.2145 42.5282C82.9272 41.8377 82.525 39.5691 79.5947 37.3498C76.6644 35.1305 78.3307 32.8619 79.0202 31.7276C79.5717 30.8201 78.2796 29.9357 77.5646 29.6069C75.8029 31.209 74.1314 31.0817 73.5582 34.8346C73.2709 36.3141 73.788 47.164 79.3613 47.9531Z" fill="#33755D"/>
<path d="M84.9345 30.0509C81.3721 29.755 79.3228 28.8673 78.6716 28.3248C78.5502 28.5025 78.4283 28.6662 78.3062 28.818C78.7138 29.5907 80.6503 31.057 85.1352 30.7414C85.0769 30.4968 85.0115 30.2659 84.9345 30.0509Z" fill="#33755D"/>
<ellipse cx="105.214" cy="30.8712" rx="1.35432" ry="1.16244" fill="#39405B"/>
<path d="M99.9264 28.6699C98.7312 29.025 98.3942 29.8371 98.375 30.1988L101.133 32.566C101.439 32.2865 102.19 31.7177 102.742 31.6783C104.58 31.481 103.604 29.9028 104.868 29.8535C106.132 29.8042 106.074 29.2124 105.04 28.5713C104.006 27.9301 101.42 28.226 99.9264 28.6699Z" fill="#FEC198"/>
<path d="M78.6752 34.0949C78.6752 31.2147 81.4714 31.3495 82.8695 31.777C86.5468 32.8127 87.0639 33.0098 90.5688 32.9112C94.3995 32.8034 97.2338 31.1193 98.268 30.1494C98.3254 30.1659 98.9919 30.6919 101.198 32.6646C98.6702 37.843 92.3499 38.3362 90.971 38.3362C89.9925 38.3362 78.6752 37.6951 78.6752 34.0949Z" fill="#07110D"/>
</svg>
