<svg width="21" height="20" viewBox="0 0 21 20" fill="none" xmlns="http://www.w3.org/2000/svg">
<path d="M16.9332 9.7915H14.0833C13.7416 9.7915 13.4583 9.50817 13.4583 9.1665V3.3415C13.4583 2.72484 13.6999 2.14984 14.1332 1.7165C14.5666 1.28317 15.1416 1.0415 15.7583 1.0415H15.7666C16.8083 1.04984 17.7916 1.45817 18.5416 2.19984C19.2916 2.95817 19.6999 3.95817 19.6999 4.99984V7.0165C19.7082 8.67484 18.5916 9.7915 16.9332 9.7915ZM14.7083 8.5415H16.9332C17.8999 8.5415 18.4583 7.98317 18.4583 7.0165V4.99984C18.4583 4.28317 18.1749 3.59984 17.6666 3.08317C17.1582 2.58317 16.4833 2.29984 15.7666 2.2915C15.7666 2.2915 15.7666 2.2915 15.7583 2.2915C15.4833 2.2915 15.2166 2.39984 15.0166 2.59984C14.8166 2.79984 14.7083 3.05817 14.7083 3.3415V8.5415Z" fill="#186ADE"/>
<path d="M8.2498 19.4415C7.85813 19.4415 7.49147 19.2915 7.21647 19.0082L5.83311 17.6165C5.75811 17.5415 5.64148 17.5332 5.55815 17.5998L4.13313 18.6665C3.69146 18.9998 3.10811 19.0582 2.60811 18.8082C2.10811 18.5582 1.7998 18.0582 1.7998 17.4998V4.99984C1.7998 2.48317 3.24147 1.0415 5.75814 1.0415H15.7581C16.0998 1.0415 16.3831 1.32484 16.3831 1.6665C16.3831 2.00817 16.0998 2.2915 15.7581 2.2915C15.1831 2.2915 14.7165 2.75817 14.7165 3.33317V17.4998C14.7165 18.0582 14.4081 18.5582 13.9081 18.8082C13.4164 19.0582 12.8248 18.9998 12.3831 18.6665L10.9581 17.5998C10.8748 17.5332 10.7581 17.5498 10.6915 17.6165L9.29146 19.0165C9.00813 19.2915 8.64146 19.4415 8.2498 19.4415ZM5.67477 16.3082C6.05811 16.3082 6.43311 16.4498 6.71644 16.7415L8.0998 18.1332C8.1498 18.1832 8.21646 18.1915 8.2498 18.1915C8.28313 18.1915 8.34979 18.1832 8.39979 18.1332L9.79978 16.7332C10.3165 16.2165 11.1332 16.1665 11.7081 16.6082L13.1248 17.6665C13.2164 17.7332 13.2998 17.7082 13.3415 17.6832C13.3831 17.6582 13.4581 17.6082 13.4581 17.4998V3.33317C13.4581 2.95817 13.5498 2.59984 13.7081 2.2915H5.7498C3.8998 2.2915 3.04146 3.14984 3.04146 4.99984V17.4998C3.04146 17.6165 3.11648 17.6665 3.15814 17.6915C3.20814 17.7165 3.29148 17.7332 3.37482 17.6665L4.79978 16.5998C5.05812 16.4082 5.36644 16.3082 5.67477 16.3082Z" fill="#186ADE"/>
<path d="M10.75 8.125H5.75C5.40833 8.125 5.125 7.84167 5.125 7.5C5.125 7.15833 5.40833 6.875 5.75 6.875H10.75C11.0917 6.875 11.375 7.15833 11.375 7.5C11.375 7.84167 11.0917 8.125 10.75 8.125Z" fill="#186ADE"/>
<path d="M10.125 11.4585H6.375C6.03333 11.4585 5.75 11.1752 5.75 10.8335C5.75 10.4918 6.03333 10.2085 6.375 10.2085H10.125C10.4667 10.2085 10.75 10.4918 10.75 10.8335C10.75 11.1752 10.4667 11.4585 10.125 11.4585Z" fill="#186ADE"/>
</svg>
