<svg width="80" height="16" viewBox="0 0 80 16" fill="none" xmlns="http://www.w3.org/2000/svg">
<g clip-path="url(#clip0_604_2909)">
<path d="M8.5978 2.03813C8.48549 1.81057 8.25373 1.6665 7.99997 1.6665C7.74621 1.6665 7.51445 1.81057 7.40215 2.03813L5.71605 5.45453L1.94582 6.00238C1.6947 6.03887 1.48607 6.21477 1.40765 6.45611C1.32923 6.69745 1.39463 6.96238 1.57634 7.13951L4.30451 9.79881L3.66048 13.5538C3.61758 13.8039 3.72039 14.0567 3.92569 14.2058C4.13099 14.355 4.40316 14.3747 4.62778 14.2566L7.99997 12.4837L11.3722 14.2566C11.5968 14.3747 11.869 14.355 12.0743 14.2058C12.2796 14.0567 12.3824 13.8039 12.3395 13.5538L11.6954 9.79881L14.4236 7.13951C14.6053 6.96238 14.6707 6.69745 14.5923 6.45611C14.5139 6.21477 14.3052 6.03887 14.0541 6.00238L10.2839 5.45453L8.5978 2.03813Z" fill="#FAAD14"/>
</g>
<g clip-path="url(#clip1_604_2909)">
<path d="M24.5978 2.03813C24.4855 1.81057 24.2537 1.6665 24 1.6665C23.7462 1.6665 23.5145 1.81057 23.4021 2.03813L21.7161 5.45453L17.9458 6.00238C17.6947 6.03887 17.4861 6.21477 17.4076 6.45611C17.3292 6.69745 17.3946 6.96238 17.5763 7.13951L20.3045 9.79881L19.6605 13.5538C19.6176 13.8039 19.7204 14.0567 19.9257 14.2058C20.131 14.355 20.4032 14.3747 20.6278 14.2566L24 12.4837L27.3722 14.2566C27.5968 14.3747 27.869 14.355 28.0743 14.2058C28.2796 14.0567 28.3824 13.8039 28.3395 13.5538L27.6954 9.79881L30.4236 7.13951C30.6053 6.96238 30.6707 6.69745 30.5923 6.45611C30.5139 6.21477 30.3052 6.03887 30.0541 6.00238L26.2839 5.45453L24.5978 2.03813Z" fill="#FAAD14"/>
</g>
<g clip-path="url(#clip2_604_2909)">
<path d="M40.5978 2.03813C40.4855 1.81057 40.2537 1.6665 40 1.6665C39.7462 1.6665 39.5145 1.81057 39.4021 2.03813L37.7161 5.45453L33.9458 6.00238C33.6947 6.03887 33.4861 6.21477 33.4076 6.45611C33.3292 6.69745 33.3946 6.96238 33.5763 7.13951L36.3045 9.79881L35.6605 13.5538C35.6176 13.8039 35.7204 14.0567 35.9257 14.2058C36.131 14.355 36.4032 14.3747 36.6278 14.2566L40 12.4837L43.3722 14.2566C43.5968 14.3747 43.869 14.355 44.0743 14.2058C44.2796 14.0567 44.3824 13.8039 44.3395 13.5538L43.6954 9.79881L46.4236 7.13951C46.6053 6.96238 46.6707 6.69745 46.5923 6.45611C46.5139 6.21477 46.3052 6.03887 46.0541 6.00238L42.2839 5.45453L40.5978 2.03813Z" fill="#FAAD14"/>
</g>
<g clip-path="url(#clip3_604_2909)">
<path d="M56.5978 2.03813C56.4855 1.81057 56.2537 1.6665 56 1.6665C55.7462 1.6665 55.5145 1.81057 55.4021 2.03813L53.7161 5.45453L49.9458 6.00238C49.6947 6.03887 49.4861 6.21477 49.4076 6.45611C49.3292 6.69745 49.3946 6.96238 49.5763 7.13951L52.3045 9.79881L51.6605 13.5538C51.6176 13.8039 51.7204 14.0567 51.9257 14.2058C52.131 14.355 52.4032 14.3747 52.6278 14.2566L56 12.4837L59.3722 14.2566C59.5968 14.3747 59.869 14.355 60.0743 14.2058C60.2796 14.0567 60.3824 13.8039 60.3395 13.5538L59.6954 9.79881L62.4236 7.13951C62.6053 6.96238 62.6707 6.69745 62.5923 6.45611C62.5139 6.21477 62.3052 6.03887 62.0541 6.00238L58.2839 5.45453L56.5978 2.03813Z" fill="#FAAD14"/>
</g>
<g clip-path="url(#clip4_604_2909)">
<path d="M72.5978 2.03813C72.4855 1.81057 72.2537 1.6665 72 1.6665C71.7462 1.6665 71.5145 1.81057 71.4021 2.03813L69.7161 5.45453L65.9458 6.00238C65.6947 6.03887 65.4861 6.21477 65.4076 6.45611C65.3292 6.69745 65.3946 6.96238 65.5763 7.13951L68.3045 9.79881L67.6605 13.5538C67.6176 13.8039 67.7204 14.0567 67.9257 14.2058C68.131 14.355 68.4032 14.3747 68.6278 14.2566L72 12.4837L75.3722 14.2566C75.5968 14.3747 75.869 14.355 76.0743 14.2058C76.2796 14.0567 76.3824 13.8039 76.3395 13.5538L75.6954 9.79881L78.4236 7.13951C78.6053 6.96238 78.6707 6.69745 78.5923 6.45611C78.5139 6.21477 78.3052 6.03887 78.0541 6.00238L74.2839 5.45453L72.5978 2.03813Z" fill="#E8E8E8"/>
</g>
<defs>
<clipPath id="clip0_604_2909">
<rect width="13.3333" height="13.3333" fill="white" transform="translate(1.33325 1.33325)"/>
</clipPath>
<clipPath id="clip1_604_2909">
<rect width="13.3333" height="13.3333" fill="white" transform="translate(17.3333 1.33325)"/>
</clipPath>
<clipPath id="clip2_604_2909">
<rect width="13.3333" height="13.3333" fill="white" transform="translate(33.3333 1.33325)"/>
</clipPath>
<clipPath id="clip3_604_2909">
<rect width="13.3333" height="13.3333" fill="white" transform="translate(49.3333 1.33325)"/>
</clipPath>
<clipPath id="clip4_604_2909">
<rect width="13.3333" height="13.3333" fill="white" transform="translate(65.3333 1.33325)"/>
</clipPath>
</defs>
</svg>
